<?xml version="1.0" encoding="UTF-8"?>
<svg xmlns="http://www.w3.org/2000/svg" xmlns:xlink="http://www.w3.org/1999/xlink" width="px" height="px" viewBox="0 0 220 200" version="1.1">
<defs>
<filter id="alpha" filterUnits="objectBoundingBox" x="0%" y="0%" width="100%" height="100%">
  <feColorMatrix type="matrix" in="SourceGraphic" values="0 0 0 0 1 0 0 0 0 1 0 0 0 0 1 0 0 0 1 0"/>
</filter>
<mask id="mask0">
  <g filter="url(#alpha)">
<rect x="0" y="0" width="220" height="200" style="fill:rgb(0%,0%,0%);fill-opacity:0.701961;stroke:none;"/>
  </g>
</mask>
<clipPath id="clip1">
  <rect x="0" y="0" width="220" height="200"/>
</clipPath>
<g id="surface5" clip-path="url(#clip1)">
<path style=" stroke:none;fill-rule:nonzero;fill:rgb(100%,100%,100%);fill-opacity:1;" d="M 203.621094 168.285156 C 205.078125 162.945312 209.835938 145.019531 213.066406 126.863281 C 216.914062 105.191406 220.285156 75.335938 204.875 62.808594 C 189.464844 50.285156 169.234375 65.21875 158.640625 60.40625 C 148.046875 55.589844 147.566406 31.503906 119.140625 24.285156 C 90.714844 17.066406 74.828125 42.101562 62.308594 55.585938 C 49.789062 69.070312 35.808594 59.921875 17.519531 74.371094 C -0.578125 88.660156 14.769531 153.371094 28.15625 168.285156 Z M 203.621094 168.285156 "/>
</g>
</defs>
<g id="surface1">
<path style=" stroke:none;fill-rule:nonzero;fill:rgb(38.431373%,40%,91.764706%);fill-opacity:1;" d="M 203.621094 168.285156 C 205.078125 162.945312 209.835938 145.019531 213.066406 126.863281 C 216.914062 105.191406 220.285156 75.335938 204.875 62.808594 C 189.464844 50.285156 169.234375 65.21875 158.640625 60.40625 C 148.046875 55.589844 147.566406 31.503906 119.140625 24.285156 C 90.714844 17.066406 74.828125 42.101562 62.308594 55.585938 C 49.789062 69.070312 35.808594 59.921875 17.519531 74.371094 C -0.578125 88.660156 14.769531 153.371094 28.15625 168.285156 Z M 203.621094 168.285156 "/>
<use xlink:href="#surface5" mask="url(#mask0)"/>
<path style=" stroke:none;fill-rule:nonzero;fill:rgb(100%,100%,100%);fill-opacity:1;" d="M 208.605469 66.855469 L 169.355469 66.855469 C 144.679688 66.65625 124.839844 46.492188 125.039062 21.816406 C 125.234375 -2.855469 145.398438 -22.699219 170.074219 -22.5 L 170.074219 78.5 C 142.183594 78.5 119.574219 55.890625 119.574219 28 C 119.574219 0.109375 142.183594 -22.5 170.074219 -22.5 L 209.324219 -22.5 C 209.324219 -11.660156 200.539062 -2.875 189.699219 -2.875 C 178.863281 -2.875 170.074219 -11.660156 170.074219 -22.5 L 170.074219 -123.5 C 197.964844 -123.300781 220.414062 -100.53125 220.214844 -72.640625 C 220.015625 -44.75 197.246094 -22.300781 169.355469 -22.5 Z M 207.886719 167.855469 L 170.078125 167.855469 L 170.078125 68.300781 L 207.886719 68.300781 Z M 207.886719 167.855469 "/>
<path style=" stroke:none;fill-rule:nonzero;fill:rgb(100%,100%,100%);fill-opacity:1;" d="M 172.820312 89.078125 L 205.144531 89.078125 C 174.332031 149.871094 100.074219 174.175781 39.28125 143.363281 C -21.507812 112.550781 -45.8125 38.292969 -15 -22.5 L -15 -39.566406 C -10.289062 -39.367188 -6.628906 -35.386719 -6.828125 -30.671875 C -7.027344 -25.960938 -11.007812 -22.300781 -15.71875 -22.5 L -48.046875 -22.5 C -47.820312 -22.628906 -47.546875 -22.628906 -47.324219 -22.5 L -47.324219 -5.433594 C -52.039062 -5.433594 -55.859375 -9.253906 -55.859375 -13.96875 C -55.859375 -18.679688 -52.039062 -22.5 -47.324219 -22.5 Z M 173.539062 72 L 204.421875 72 L 204.421875 87.621094 L 173.539062 87.621094 Z M 172.820312 113.320312 L 205.144531 113.320312 C 167.640625 183.039062 80.71875 209.152344 11 171.644531 C -58.71875 134.140625 -84.832031 47.21875 -47.324219 -22.5 L -47.324219 -39.566406 C -42.613281 -39.363281 -38.953125 -35.382812 -39.15625 -30.671875 C -39.355469 -25.957031 -43.335938 -22.300781 -48.050781 -22.5 L -80.375 -22.5 C -80.152344 -22.628906 -79.875 -22.628906 -79.648438 -22.5 L -79.648438 -5.433594 C -84.363281 -5.433594 -88.183594 -9.253906 -88.183594 -13.96875 C -88.183594 -18.679688 -84.363281 -22.5 -79.648438 -22.5 Z M 173.539062 96.253906 L 204.421875 96.253906 L 204.421875 111.878906 L 173.539062 111.878906 Z M 172.820312 137.566406 L 205.144531 137.566406 C 160.945312 216.207031 61.359375 244.128906 -17.285156 199.929688 C -95.929688 155.730469 -123.851562 56.144531 -79.648438 -22.5 L -79.648438 -39.570312 C -74.9375 -39.371094 -71.277344 -35.390625 -71.476562 -30.675781 C -71.671875 -25.960938 -75.65625 -22.300781 -80.371094 -22.5 L -112.695312 -22.5 C -112.472656 -22.628906 -112.199219 -22.628906 -111.976562 -22.5 L -111.976562 -5.429688 C -116.6875 -5.429688 -120.511719 -9.25 -120.511719 -13.964844 C -120.511719 -18.679688 -116.6875 -22.5 -111.976562 -22.5 Z M 173.539062 120.5 L 204.421875 120.5 L 204.421875 136.121094 L 173.539062 136.121094 Z M 172.820312 161.808594 L 205.144531 161.808594 C 154.25 249.378906 42 279.109375 -45.570312 228.214844 C -133.140625 177.320312 -162.871094 65.070312 -111.976562 -22.5 L -111.976562 144 C -157.953125 144.199219 -195.386719 107.085938 -195.585938 61.109375 C -195.785156 15.132812 -158.671875 -22.300781 -112.695312 -22.5 L -145.019531 -22.5 C -144.796875 -22.628906 -144.523438 -22.628906 -144.300781 -22.5 L -144.300781 -5.433594 C -149.011719 -5.433594 -152.832031 -9.253906 -152.832031 -13.96875 C -152.832031 -18.679688 -149.011719 -22.5 -144.300781 -22.5 Z M 173.539062 144.746094 L 204.421875 144.746094 L 204.421875 160.363281 L 173.539062 160.363281 Z M 159.441406 31 L 53.71875 31 C 38.945312 30.808594 27.125 18.671875 27.320312 3.898438 C 27.511719 -10.875 39.644531 -22.691406 54.421875 -22.5 L 54.421875 30.160156 C 39.878906 30.160156 28.089844 18.371094 28.089844 3.828125 C 28.089844 -10.710938 39.878906 -22.5 54.421875 -22.5 L 160.136719 -22.5 C 160.136719 6.691406 136.46875 30.359375 107.277344 30.359375 C 78.085938 30.359375 54.421875 6.691406 54.421875 -22.5 L 54.421875 31.699219 C 39.453125 31.894531 27.164062 19.917969 26.96875 4.949219 C 26.777344 -10.015625 38.753906 -22.308594 53.71875 -22.5 Z M 158.714844 32.445312 L 158.714844 81.304688 L 54.441406 81.304688 L 54.441406 32.425781 Z M 158.714844 32.445312 "/>
<path style="fill-rule:nonzero;fill:rgb(14.901961%,19.607843%,21.960784%);fill-opacity:1;stroke-width:1;stroke-linecap:round;stroke-linejoin:round;stroke:rgb(14.901961%,19.607843%,21.960784%);stroke-opacity:1;stroke-miterlimit:4;" d="M 396.429688 315.28125 L 391.882812 384 C 285.84375 383.640625 200.171875 297.390625 200.523438 191.351562 C 200.882812 85.3125 287.132812 -0.359375 393.171875 0 C 393.695312 0.320312 393.945312 0.945312 393.78125 1.539062 C 393.617188 2.132812 393.078125 2.539062 392.460938 2.539062 C 391.84375 2.539062 391.304688 2.132812 391.140625 1.539062 C 390.976562 0.945312 391.226562 0.320312 391.75 0 L 393.617188 -68.59375 Z M 408.070312 315.28125 L 412.617188 384 C 306.578125 389.765625 215.945312 308.476562 210.1875 202.4375 C 204.421875 96.398438 285.710938 5.765625 391.75 0 L 389.859375 -68.546875 Z M 362.453125 315.28125 L 367 384 C 260.960938 377.164062 180.539062 285.664062 187.375 179.625 C 194.210938 73.585938 285.710938 -6.835938 391.75 0 L 389.851562 -68.546875 Z M 343.859375 315.28125 L 339.3125 384 C 233.273438 383.640625 147.601562 297.390625 147.953125 191.351562 C 148.3125 85.3125 234.5625 -0.359375 340.601562 0 C 341.140625 0.320312 341.398438 0.960938 341.226562 1.5625 C 341.0625 2.164062 340.515625 2.585938 339.890625 2.585938 C 339.265625 2.585938 338.71875 2.164062 338.546875 1.5625 C 338.382812 0.960938 338.640625 0.320312 339.179688 0 L 341.078125 -68.546875 Z M 343.859375 315.28125 " transform="matrix(0.5,0,0,0.5,-15,-22.5)"/>
<path style="fill-rule:nonzero;fill:rgb(100%,100%,100%);fill-opacity:1;stroke-width:1;stroke-linecap:round;stroke-linejoin:round;stroke:rgb(14.901961%,19.607843%,21.960784%);stroke-opacity:1;stroke-miterlimit:4;" d="M 423.132812 246 C 423.132812 246 377.726562 244.296875 373.890625 244.296875 C 370.046875 244.296875 369.15625 246 369.15625 246 L 362.679688 291.6875 C 362.679688 291.6875 342.53125 285.9375 338.578125 286.6875 C 334.632812 287.4375 340.53125 316.109375 340.53125 316.109375 L 363.328125 316.109375 L 363.742188 314.390625 L 415.21875 314.390625 L 428.890625 249.273438 C 428.0625 246.289062 423.132812 246 423.132812 246 Z M 423.132812 246 " transform="matrix(0.5,0,0,0.5,-15,-22.5)"/>
<path style="fill-rule:nonzero;fill:rgb(100%,100%,100%);fill-opacity:1;stroke-width:1;stroke-linecap:round;stroke-linejoin:round;stroke:rgb(14.901961%,19.607843%,21.960784%);stroke-opacity:1;stroke-miterlimit:4;" d="M 405.851562 274.578125 C 405.851562 274.578125 410.46875 304.578125 405.171875 308.078125 C 404.351562 308.617188 399.898438 311.179688 395.742188 310.757812 C 392.398438 310.421875 368.796875 310.757812 368.796875 310.757812 C 368.796875 310.757812 365.523438 304.523438 364.859375 299.921875 C 364.203125 295.320312 369.359375 275.578125 369.359375 275.578125 Z M 405.851562 274.578125 " transform="matrix(0.5,0,0,0.5,-15,-22.5)"/>
<path style="fill-rule:nonzero;fill:rgb(38.431373%,40%,91.764706%);fill-opacity:1;stroke-width:1;stroke-linecap:round;stroke-linejoin:round;stroke:rgb(14.901961%,19.607843%,21.960784%);stroke-opacity:1;stroke-miterlimit:4;" d="M 367.203125 290.648438 C 367.203125 290.648438 333.039062 294.203125 331.429688 295.15625 C 329.820312 296.117188 322.429688 302.570312 323.703125 306.757812 C 324.96875 310.953125 321.773438 311.273438 324.703125 311.921875 C 327.632812 312.570312 369.15625 312.5625 369.15625 312.5625 " transform="matrix(0.5,0,0,0.5,-15,-22.5)"/>
<path style="fill-rule:nonzero;fill:rgb(100%,100%,100%);fill-opacity:1;stroke-width:1;stroke-linecap:round;stroke-linejoin:round;stroke:rgb(14.901961%,19.607843%,21.960784%);stroke-opacity:1;stroke-miterlimit:4;" d="M 417.296875 316.0625 L 336.132812 316.0625 L 336.132812 310 L 417.296875 310 Z M 417.296875 316.0625 " transform="matrix(0.5,0,0,0.5,-15,-22.5)"/>
<path style="fill-rule:nonzero;fill:rgb(38.431373%,40%,91.764706%);fill-opacity:1;stroke-width:1;stroke-linecap:round;stroke-linejoin:round;stroke:rgb(14.901961%,19.607843%,21.960784%);stroke-opacity:1;stroke-miterlimit:4;" d="M 398.132812 291.9375 L 349.226562 291.9375 C 349.226562 291.9375 346.65625 294.84375 346.328125 300.9375 C 346 307.039062 346.65625 308.351562 351.171875 309.9375 C 355.679688 311.53125 395.742188 310.71875 395.742188 310.71875 " transform="matrix(0.5,0,0,0.5,-15,-22.5)"/>
<path style="fill-rule:nonzero;fill:rgb(100%,100%,100%);fill-opacity:1;stroke-width:1;stroke-linecap:round;stroke-linejoin:round;stroke:rgb(14.901961%,19.607843%,21.960784%);stroke-opacity:1;stroke-miterlimit:4;" d="M 359.601562 369.539062 L 354.476562 357.40625 L 346.09375 359 L 352.507812 369.820312 L 348.8125 377.226562 L 340.8125 382.460938 C 340.8125 382.460938 339.882812 383.382812 343.882812 383.070312 C 347.882812 382.757812 356.179688 383.070312 356.179688 383.070312 L 361.40625 376.921875 C 361.40625 376.921875 363.3125 373.789062 359.601562 369.539062 Z M 359.601562 369.539062 " transform="matrix(0.5,0,0,0.5,-15,-22.5)"/>
<path style="fill-rule:nonzero;fill:rgb(14.901961%,19.607843%,21.960784%);fill-opacity:1;stroke-width:1;stroke-linecap:round;stroke-linejoin:round;stroke:rgb(14.901961%,19.607843%,21.960784%);stroke-opacity:1;stroke-miterlimit:4;" d="M 361.84375 374.84375 L 362.046875 382.773438 L 360.796875 382.773438 L 359.132812 378.8125 Z M 361.84375 374.84375 " transform="matrix(0.5,0,0,0.5,-15,-22.5)"/>
<path style="fill-rule:nonzero;fill:rgb(14.901961%,19.607843%,21.960784%);fill-opacity:1;stroke-width:1;stroke-linecap:round;stroke-linejoin:round;stroke:rgb(14.901961%,19.607843%,21.960784%);stroke-opacity:1;stroke-miterlimit:4;" d="M 356.1875 383.109375 L 361.421875 376.960938 C 361.421875 376.960938 362.773438 374.671875 360.90625 371.367188 C 357.1875 377.726562 352.242188 379.640625 352.242188 379.640625 L 347.078125 378.398438 L 340.820312 382.5 C 340.820312 382.5 339.890625 383.421875 343.890625 383.109375 C 347.890625 382.796875 356.1875 383.109375 356.1875 383.109375 Z M 356.1875 383.109375 " transform="matrix(0.5,0,0,0.5,-15,-22.5)"/>
<path style="fill-rule:nonzero;fill:rgb(38.431373%,40%,91.764706%);fill-opacity:1;stroke-width:1;stroke-linecap:round;stroke-linejoin:round;stroke:rgb(14.901961%,19.607843%,21.960784%);stroke-opacity:1;stroke-miterlimit:4;" d="M 339.492188 307.726562 L 356.640625 359.578125 L 344.46875 361.742188 L 320.46875 307.742188 C 320.46875 307.742188 318.539062 299.679688 323.6875 297.109375 C 328.84375 294.539062 343.992188 293.242188 343.992188 293.242188 " transform="matrix(0.5,0,0,0.5,-15,-22.5)"/>
<path style="fill-rule:nonzero;fill:rgb(14.901961%,19.607843%,21.960784%);fill-opacity:1;stroke-width:1;stroke-linecap:round;stroke-linejoin:round;stroke:rgb(14.901961%,19.607843%,21.960784%);stroke-opacity:1;stroke-miterlimit:4;" d="M 394.5 316.046875 C 394.5 316.046875 388.59375 287.34375 392.546875 286.632812 C 396.507812 285.921875 416.648438 291.632812 416.648438 291.632812 L 423.132812 246 C 423.132812 246 429.96875 244.921875 430.6875 251 C 431.40625 257.078125 417.296875 316.046875 417.296875 316.046875 Z M 394.5 316.046875 " transform="matrix(0.5,0,0,0.5,-15,-22.5)"/>
<path style="fill-rule:nonzero;fill:rgb(100%,100%,100%);fill-opacity:1;stroke-width:1;stroke-linecap:round;stroke-linejoin:round;stroke:rgb(14.901961%,19.607843%,21.960784%);stroke-opacity:1;stroke-miterlimit:4;" d="M 324.90625 231.523438 L 321.859375 226.523438 C 259.304688 226.945312 208.257812 176.578125 207.828125 114.03125 C 207.40625 51.476562 257.765625 0.421875 320.320312 0 L 317.453125 0.046875 L 312.539062 -1.421875 C 312.945312 -1.0625 313.148438 -0.53125 313.09375 0 L 312.90625 0.226562 L 317.429688 2.226562 L 312.921875 3.890625 L 308.132812 1.460938 C 307.921875 1.25 307.820312 0.953125 307.875 0.664062 C 307.929688 0.367188 308.117188 0.125 308.390625 0 L 315.09375 5.171875 C 313.664062 7.023438 311.007812 7.359375 309.15625 5.9375 C 307.304688 4.507812 306.960938 1.851562 308.390625 0 L 315.796875 -1.492188 L 317.867188 0.773438 Z M 324.90625 231.523438 " transform="matrix(0.5,0,0,0.5,-15,-22.5)"/>
<path style="fill-rule:nonzero;fill:rgb(100%,100%,100%);fill-opacity:1;stroke-width:1;stroke-linecap:round;stroke-linejoin:round;stroke:rgb(14.901961%,19.607843%,21.960784%);stroke-opacity:1;stroke-miterlimit:4;" d="M 376.570312 221.257812 L 349.101562 249.992188 L 322.882812 228.796875 L 319.257812 231.429688 L 348.109375 264.117188 L 373.117188 250.648438 Z M 417.671875 228.601562 L 432.070312 272.851562 L 419.648438 273.210938 L 407.296875 252.4375 C 407.296875 252.4375 414.242188 231.492188 417.671875 228.601562 Z M 417.671875 228.601562 " transform="matrix(0.5,0,0,0.5,-15,-22.5)"/>
<path style="fill-rule:nonzero;fill:rgb(100%,100%,100%);fill-opacity:1;stroke-width:1;stroke-linecap:round;stroke-linejoin:round;stroke:rgb(14.901961%,19.607843%,21.960784%);stroke-opacity:1;stroke-miterlimit:4;" d="M 402 221 L 417.671875 228.648438 L 404.546875 265.34375 L 406.101562 275.570312 L 369.359375 275.632812 L 373.742188 259.148438 L 370.742188 248.59375 C 302.09375 249.75 245.507812 195.039062 244.34375 126.398438 C 243.1875 57.75 297.890625 1.15625 366.539062 0 L 372.421875 -23.078125 L 387.859375 -25.5625 Z M 402 221 " transform="matrix(0.5,0,0,0.5,-15,-22.5)"/>
<path style="fill-rule:nonzero;fill:rgb(100%,100%,100%);fill-opacity:1;stroke-width:1;stroke-linecap:round;stroke-linejoin:round;stroke:rgb(14.901961%,19.607843%,21.960784%);stroke-opacity:1;stroke-miterlimit:4;" d="M 401.25 218.851562 C 401.25 218.851562 404.328125 220.929688 404.429688 222.78125 C 404.476562 223.867188 404.429688 225.78125 404.328125 227.242188 C 341.578125 226.328125 291.453125 174.71875 292.367188 111.96875 C 293.28125 49.210938 344.890625 -0.914062 407.640625 0 L 402.09375 6.703125 L 395.671875 1.632812 L 390.34375 4.351562 C 390.34375 4.351562 389.34375 -3.820312 391.671875 -9.523438 C 394 -15.21875 404.140625 -13.132812 405.328125 -11.703125 Z M 401.25 218.851562 " transform="matrix(0.5,0,0,0.5,-15,-22.5)"/>
<path style="fill-rule:nonzero;fill:rgb(100%,100%,100%);fill-opacity:1;stroke-width:1;stroke-linecap:round;stroke-linejoin:round;stroke:rgb(14.901961%,19.607843%,21.960784%);stroke-opacity:1;stroke-miterlimit:4;" d="M 405.65625 203 C 405.65625 203 404.398438 207.53125 403.8125 210.53125 C 403.21875 213.53125 402.03125 219.53125 402.140625 221.78125 C 402.25 224.03125 392.78125 233.609375 391.59375 232.179688 C 390.398438 230.75 389.148438 222.4375 389.148438 222.4375 L 390.328125 209 C 390.328125 209 402.671875 195.328125 405.65625 203 Z M 405.65625 203 " transform="matrix(0.5,0,0,0.5,-15,-22.5)"/>
<path style="fill-rule:nonzero;fill:rgb(100%,100%,100%);fill-opacity:1;stroke-width:1;stroke-linecap:round;stroke-linejoin:round;stroke:rgb(14.901961%,19.607843%,21.960784%);stroke-opacity:1;stroke-miterlimit:4;" d="M 385.867188 196 C 385.867188 196 384.179688 198.789062 384.179688 200 C 384.179688 201.210938 384.773438 203.578125 384.671875 204.273438 C 384.570312 204.960938 382.890625 207.273438 382.671875 208.046875 C 386.3125 204.40625 392.226562 204.40625 395.867188 208.046875 C 399.515625 211.695312 399.515625 217.601562 395.867188 221.25 C 395.867188 221.25 396.367188 227.40625 397.171875 229 C 397.96875 230.59375 398.65625 231.289062 401.039062 231.492188 C 403.421875 231.6875 409.09375 229.203125 409.882812 227.210938 C 410.671875 225.21875 410.78125 222.84375 410.882812 219.960938 C 410.976562 217.078125 408.992188 212.960938 407.5 209.03125 C 406.007812 205.101562 399.773438 202.9375 397.1875 206.820312 Z M 385.867188 196 " transform="matrix(0.5,0,0,0.5,-15,-22.5)"/>
<path style="fill-rule:nonzero;fill:rgb(14.901961%,19.607843%,21.960784%);fill-opacity:1;stroke-width:1;stroke-linecap:round;stroke-linejoin:round;stroke:rgb(14.901961%,19.607843%,21.960784%);stroke-opacity:1;stroke-miterlimit:4;" d="M 419.148438 208.710938 C 419.148438 212.921875 415.734375 216.34375 411.523438 216.34375 C 407.304688 216.34375 403.890625 212.921875 403.890625 208.710938 C 403.890625 204.492188 407.304688 201.078125 411.523438 201.078125 C 415.734375 201.078125 419.148438 204.492188 419.148438 208.710938 Z M 419.148438 208.710938 " transform="matrix(0.5,0,0,0.5,-15,-22.5)"/>
<path style="fill-rule:nonzero;fill:rgb(14.901961%,19.607843%,21.960784%);fill-opacity:1;stroke-width:1;stroke-linecap:round;stroke-linejoin:round;stroke:rgb(14.901961%,19.607843%,21.960784%);stroke-opacity:1;stroke-miterlimit:4;" d="M 385.828125 195.570312 C 385.828125 195.570312 388.898438 192.921875 394.421875 198.1875 C 399.9375 203.460938 397.84375 211.078125 401.53125 212.65625 C 405.21875 214.242188 412.046875 206.34375 412.84375 202.398438 C 413.632812 198.460938 411.257812 190.289062 403.890625 188.710938 C 396.523438 187.132812 387.492188 188.210938 385.828125 195.570312 Z M 385.828125 195.570312 " transform="matrix(0.5,0,0,0.5,-15,-22.5)"/>
<path style="fill-rule:nonzero;fill:rgb(14.901961%,19.607843%,21.960784%);fill-opacity:1;stroke-width:1;stroke-linecap:round;stroke-linejoin:round;stroke:rgb(14.901961%,19.607843%,21.960784%);stroke-opacity:1;stroke-miterlimit:4;" d="M 385.828125 195.570312 C 331.828125 302.117188 201.671875 344.703125 95.132812 290.703125 C -11.414062 236.695312 -54.007812 106.546875 0 0 C 5 0.273438 5.523438 8.15625 8.148438 11.320312 C 10.78125 14.476562 12.101562 13.953125 12.101562 13.953125 C 12.101562 13.953125 7.632812 15.257812 4.726562 13.679688 C 1.828125 12.101562 0.429688 3.1875 -4.648438 4.492188 Z M 385.828125 195.570312 " transform="matrix(0.5,0,0,0.5,-15,-22.5)"/>
<path style="fill:none;stroke-width:0.5;stroke-linecap:round;stroke-linejoin:round;stroke:rgb(100%,100%,100%);stroke-opacity:1;stroke-miterlimit:4;" d="M 394 190.15625 C 341.492188 298.960938 210.71875 344.59375 101.921875 292.078125 C -6.882812 239.570312 -52.507812 108.796875 0 0 C 2.273438 4.8125 2.273438 8.78125 7.65625 8.5 C 7.65625 8.5 5.109375 9.070312 1.140625 7.078125 C -2.828125 5.09375 -3.679688 -0.570312 -6.226562 -2.84375 C -6.773438 -1.742188 -7.546875 -0.765625 -8.5 0 M 15.671875 10.539062 C 15.671875 10.539062 15.4375 17.757812 9.898438 19.28125 " transform="matrix(0.5,0,0,0.5,-15,-22.5)"/>
<path style="fill-rule:nonzero;fill:rgb(100%,100%,100%);fill-opacity:1;stroke-width:1;stroke-linecap:round;stroke-linejoin:round;stroke:rgb(14.901961%,19.607843%,21.960784%);stroke-opacity:1;stroke-miterlimit:4;" d="M 397.382812 209.773438 C 397.382812 209.773438 402.65625 202.859375 403.898438 208.023438 C 405.140625 213.179688 400.898438 214.4375 398.898438 213.851562 C 396.898438 213.257812 397.179688 212.1875 397.179688 212.1875 M 385.632812 268.898438 C 385.632812 268.898438 375.546875 270.296875 373.867188 270.296875 C 372.1875 270.296875 367.992188 275.617188 367.992188 275.617188 L 386.46875 275.617188 Z M 385.632812 268.898438 " transform="matrix(0.5,0,0,0.5,-15,-22.5)"/>
<path style="fill-rule:nonzero;fill:rgb(100%,100%,100%);fill-opacity:1;stroke-width:1;stroke-linecap:round;stroke-linejoin:round;stroke:rgb(14.901961%,19.607843%,21.960784%);stroke-opacity:1;stroke-miterlimit:4;" d="M 428.453125 262.117188 L 432.070312 270.28125 C 357.4375 269.109375 297.882812 207.648438 299.054688 133.015625 C 300.226562 58.382812 361.6875 -1.171875 436.320312 0 L 392.617188 0.25 L 392.898438 -5.632812 L 426.78125 -10.992188 " transform="matrix(0.5,0,0,0.5,-15,-22.5)"/>
<path style="fill-rule:nonzero;fill:rgb(14.901961%,19.607843%,21.960784%);fill-opacity:1;stroke-width:1;stroke-linecap:round;stroke-linejoin:round;stroke:rgb(14.901961%,19.607843%,21.960784%);stroke-opacity:1;stroke-miterlimit:4;" d="M 369.960938 374.84375 L 370.171875 382.773438 L 368.921875 382.773438 L 367.25 378.8125 Z M 369.960938 374.84375 " transform="matrix(0.5,0,0,0.5,-15,-22.5)"/>
<path style="fill-rule:nonzero;fill:rgb(100%,100%,100%);fill-opacity:1;stroke-width:1;stroke-linecap:round;stroke-linejoin:round;stroke:rgb(14.901961%,19.607843%,21.960784%);stroke-opacity:1;stroke-miterlimit:4;" d="M 367.71875 369.539062 L 366.109375 358 L 357.726562 358.539062 L 360.632812 369.898438 L 356.929688 377.3125 L 348.929688 382.539062 C 348.929688 382.539062 348.007812 383.460938 352.007812 383.148438 C 356.007812 382.84375 364.3125 383.148438 364.3125 383.148438 L 369.539062 377 C 369.539062 377 371.429688 373.789062 367.71875 369.539062 Z M 367.71875 369.539062 " transform="matrix(0.5,0,0,0.5,-15,-22.5)"/>
<path style="fill-rule:nonzero;fill:rgb(14.901961%,19.607843%,21.960784%);fill-opacity:1;stroke-width:1;stroke-linecap:round;stroke-linejoin:round;stroke:rgb(14.901961%,19.607843%,21.960784%);stroke-opacity:1;stroke-miterlimit:4;" d="M 364.3125 383.109375 L 369.539062 376.960938 C 369.539062 376.960938 370.890625 374.671875 369.023438 371.367188 C 365.296875 377.726562 360.351562 379.640625 360.351562 379.640625 L 355.203125 378.398438 L 348.929688 382.5 C 348.929688 382.5 348.007812 383.421875 352.007812 383.109375 C 356.007812 382.796875 364.3125 383.109375 364.3125 383.109375 Z M 364.3125 383.109375 " transform="matrix(0.5,0,0,0.5,-15,-22.5)"/>
<path style="fill-rule:nonzero;fill:rgb(38.431373%,40%,91.764706%);fill-opacity:1;stroke-width:1;stroke-linecap:round;stroke-linejoin:round;stroke:rgb(14.901961%,19.607843%,21.960784%);stroke-opacity:1;stroke-miterlimit:4;" d="M 363.882812 298.796875 L 367.46875 360.117188 L 356.101562 360.390625 L 345 304.679688 C 345 304.679688 345.210938 294.070312 348.601562 292.851562 C 351.992188 291.632812 360.992188 292.9375 360.992188 292.9375 " transform="matrix(0.5,0,0,0.5,-15,-22.5)"/>
<path style="fill-rule:nonzero;fill:rgb(100%,100%,100%);fill-opacity:1;stroke-width:1;stroke-linecap:round;stroke-linejoin:round;stroke:rgb(14.901961%,19.607843%,21.960784%);stroke-opacity:1;stroke-miterlimit:4;" d="M 314.179688 166.8125 L 328.289062 206.359375 C 328.289062 206.359375 326.429688 215.3125 320.828125 214.9375 C 315.226562 214.570312 313.742188 206.726562 312.25 205.609375 C 310.757812 204.492188 308.523438 195.90625 308.523438 195.90625 Z M 314.179688 166.8125 " transform="matrix(0.5,0,0,0.5,-15,-22.5)"/>
<path style="fill-rule:nonzero;fill:rgb(100%,100%,100%);fill-opacity:1;stroke-width:1;stroke-linecap:round;stroke-linejoin:round;stroke:rgb(14.901961%,19.607843%,21.960784%);stroke-opacity:1;stroke-miterlimit:4;" d="M 277.679688 158.882812 L 254.742188 167.15625 L 263.539062 230.773438 L 304.929688 230.773438 L 314.179688 166.8125 L 289.421875 159.0625 Z M 277.679688 158.882812 " transform="matrix(0.5,0,0,0.5,-15,-22.5)"/>
<path style="fill-rule:nonzero;fill:rgb(38.431373%,40%,91.764706%);fill-opacity:1;stroke-width:1;stroke-linecap:round;stroke-linejoin:round;stroke:rgb(14.901961%,19.607843%,21.960784%);stroke-opacity:1;stroke-miterlimit:4;" d="M 279.890625 169.78125 L 283.203125 174.773438 L 280.328125 217.09375 L 284.546875 228.109375 L 288.882812 217.390625 L 285.171875 175.398438 L 288.148438 168.1875 L 284.023438 162.757812 Z M 279.890625 169.78125 " transform="matrix(0.5,0,0,0.5,-15,-22.5)"/>
<path style="fill-rule:nonzero;fill:rgb(100%,100%,100%);fill-opacity:1;stroke-width:1;stroke-linecap:round;stroke-linejoin:round;stroke:rgb(14.901961%,19.607843%,21.960784%);stroke-opacity:1;stroke-miterlimit:4;" d="M 284.46875 167.71875 L 278.5625 172.148438 L 274.671875 160.601562 L 277.382812 154.75 L 289.46875 154.460938 L 292.421875 157.109375 L 291.828125 171.851562 Z M 284.46875 167.71875 " transform="matrix(0.5,0,0,0.5,-15,-22.5)"/>
<path style="fill-rule:nonzero;fill:rgb(100%,100%,100%);fill-opacity:1;stroke-width:1;stroke-linecap:round;stroke-linejoin:round;stroke:rgb(14.901961%,19.607843%,21.960784%);stroke-opacity:1;stroke-miterlimit:4;" d="M 290.71875 151.75 L 289.796875 159.179688 L 283.179688 167.71875 L 278.226562 159.0625 L 278.226562 145.132812 C 278.226562 145.132812 286.898438 147.296875 290.71875 151.75 Z M 290.71875 151.75 " transform="matrix(0.5,0,0,0.5,-15,-22.5)"/>
<path style="fill-rule:nonzero;fill:rgb(100%,100%,100%);fill-opacity:1;stroke-width:1;stroke-linecap:round;stroke-linejoin:round;stroke:rgb(14.901961%,19.607843%,21.960784%);stroke-opacity:1;stroke-miterlimit:4;" d="M 274.828125 136.3125 C 274.828125 129.5625 279.75 124.09375 285.828125 124.09375 C 291.90625 124.09375 295.28125 129.859375 295.28125 136.609375 C 295.28125 138.789062 294.828125 142.53125 294.648438 144.523438 C 294.34375 147.921875 293.3125 149.359375 291.296875 152.40625 C 284.710938 162.40625 279.296875 147.742188 276.53125 142.8125 C 237.09375 144.601562 203.671875 114.09375 201.875 74.65625 C 200.078125 35.21875 230.59375 1.796875 270.03125 0 Z M 274.828125 136.3125 " transform="matrix(0.5,0,0,0.5,-15,-22.5)"/>
<path style="fill-rule:nonzero;fill:rgb(100%,100%,100%);fill-opacity:1;stroke-width:1;stroke-linecap:round;stroke-linejoin:round;stroke:rgb(14.901961%,19.607843%,21.960784%);stroke-opacity:1;stroke-miterlimit:4;" d="M 290.609375 138.429688 L 291.539062 145.398438 L 288.273438 145.3125 " transform="matrix(0.5,0,0,0.5,-15,-22.5)"/>
<path style="fill-rule:nonzero;fill:rgb(100%,100%,100%);fill-opacity:1;stroke-width:1;stroke-linecap:round;stroke-linejoin:round;stroke:rgb(14.901961%,19.607843%,21.960784%);stroke-opacity:1;stroke-miterlimit:4;" d="M 297.90625 137.21875 L 282.1875 137.289062 C 244.28125 215.210938 150.375 247.648438 72.453125 209.742188 C -5.476562 171.828125 -37.914062 77.921875 0 0 C 1 1 5.070312 0.648438 5.71875 0.390625 C 6.367188 0.132812 6.71875 -2.726562 6.71875 -2.726562 L 7.890625 -2.726562 C 7.890625 -2.726562 8.023438 0.273438 9.703125 0.523438 C 11.382812 0.773438 13.570312 0.6875 13.992188 0.390625 C 15.851562 -0.859375 14.9375 -3.640625 14.9375 -3.640625 Z M 297.90625 137.21875 " transform="matrix(0.5,0,0,0.5,-15,-22.5)"/>
<path style="fill-rule:nonzero;fill:rgb(14.901961%,19.607843%,21.960784%);fill-opacity:1;stroke-width:1;stroke-linecap:round;stroke-linejoin:round;stroke:rgb(14.901961%,19.607843%,21.960784%);stroke-opacity:1;stroke-miterlimit:4;" d="M 276.773438 143.9375 C 276.773438 143.9375 280.3125 151.1875 281.148438 153.703125 C 281.992188 156.210938 286.148438 158.171875 290.359375 156.773438 C 294.570312 155.367188 293.429688 149.140625 293.429688 149.140625 C 293.429688 149.140625 288.960938 145.320312 288.132812 146.140625 C 287.296875 146.960938 282.820312 150.609375 282.539062 149.773438 C 282.257812 148.929688 280.3125 143.90625 280.3125 143.90625 L 279.398438 140.351562 L 281.273438 139.148438 C 242.84375 216.820312 148.734375 248.632812 71.0625 210.210938 C -6.609375 171.78125 -38.421875 77.671875 0 0 L -0.882812 -1.273438 C -0.28125 -1.414062 0.34375 -1.15625 0.664062 -0.632812 C 0.984375 -0.109375 0.9375 0.5625 0.539062 1.03125 C 0.140625 1.5 -0.515625 1.65625 -1.085938 1.421875 C -1.65625 1.1875 -2.007812 0.617188 -1.960938 0 C -1.726562 -1.09375 -1.101562 -3.351562 0.359375 -4 C 2.359375 -4.828125 4.789062 -3.617188 7.03125 -3.0625 C 9.273438 -2.5 11.703125 -4.523438 11.703125 -4.523438 L 12.703125 -1.203125 C 19.226562 1.898438 22.851562 9 21.53125 16.101562 C 20.210938 23.203125 14.28125 28.523438 7.078125 29.078125 C -0.125 29.625 -6.789062 25.257812 -9.171875 18.4375 C -11.546875 11.617188 -9.039062 4.046875 -3.0625 0 C -1.9375 -4.75 -13.390625 -6.703125 -17.0625 -6.703125 C -20.726562 -6.703125 -26.546875 -4.703125 -28.226562 0.5625 C -29.90625 5.820312 -26.890625 16.976562 -25.898438 17.921875 Z M 276.773438 143.9375 " transform="matrix(0.5,0,0,0.5,-15,-22.5)"/>
<path style="fill:none;stroke-width:0.5;stroke-linecap:round;stroke-linejoin:round;stroke:rgb(100%,100%,100%);stroke-opacity:1;stroke-miterlimit:4;" d="M 285.828125 126.046875 C 285.828125 126.046875 287.90625 129.171875 285.179688 129.820312 C 282.453125 130.46875 277.132812 128.132812 274.789062 129.039062 M 281.148438 132.929688 C 281.148438 132.929688 276.867188 132.40625 275.148438 134.226562 M 291.453125 148.703125 C 291.453125 148.703125 288.296875 150.34375 286.742188 148.390625 " transform="matrix(0.5,0,0,0.5,-15,-22.5)"/>
<path style="fill-rule:nonzero;fill:rgb(100%,100%,100%);fill-opacity:1;stroke-width:1;stroke-linecap:round;stroke-linejoin:round;stroke:rgb(14.901961%,19.607843%,21.960784%);stroke-opacity:1;stroke-miterlimit:4;" d="M 277.296875 141.726562 C 277.296875 141.726562 274.210938 138.328125 274.210938 142.039062 C 274.210938 145.75 275.140625 145.75 276.992188 147.039062 C 278.84375 148.328125 279.46875 146.726562 279.46875 146.726562 " transform="matrix(0.5,0,0,0.5,-15,-22.5)"/>
<path style="fill-rule:nonzero;fill:rgb(14.901961%,19.607843%,21.960784%);fill-opacity:1;stroke-width:1;stroke-linecap:round;stroke-linejoin:round;stroke:rgb(14.901961%,19.607843%,21.960784%);stroke-opacity:1;stroke-miterlimit:4;" d="M 318.5625 372.242188 L 318.703125 372.242188 L 318.429688 370.882812 L 304.929688 230.78125 L 263.539062 230.78125 L 249.929688 372.226562 L 250.078125 372.226562 L 258.859375 372.976562 C 258.859375 372.976562 268.601562 340.28125 268.601562 337.84375 C 268.601562 335.398438 271.382812 312.84375 271.382812 312.84375 L 285.1875 264.289062 L 297.398438 312.84375 C 297.398438 312.84375 300.179688 335.453125 300.179688 337.84375 C 300.179688 340.226562 309.929688 373 309.929688 373 L 318.1875 372.289062 L 318.5625 372.289062 Z M 318.5625 372.242188 " transform="matrix(0.5,0,0,0.5,-15,-22.5)"/>
<path style="fill:none;stroke-width:0.5;stroke-linecap:round;stroke-linejoin:round;stroke:rgb(100%,100%,100%);stroke-opacity:1;stroke-miterlimit:4;" d="M 301.84375 239.023438 L 292.632812 252.171875 M 296.90625 241.976562 L 291.320312 251.1875 M 270.609375 241.328125 L 278.820312 250.203125 M 269.953125 244.609375 L 281.78125 256.453125 M 266 232.117188 L 302.5 232.117188 " transform="matrix(0.5,0,0,0.5,-15,-22.5)"/>
<path style="fill-rule:nonzero;fill:rgb(14.901961%,19.607843%,21.960784%);fill-opacity:1;stroke-width:1;stroke-linecap:round;stroke-linejoin:round;stroke:rgb(14.901961%,19.607843%,21.960784%);stroke-opacity:1;stroke-miterlimit:4;" d="M 250.078125 372.226562 C 250.078125 372.226562 244.8125 376.382812 241.773438 377.523438 C 238.726562 378.65625 233.046875 381.6875 233.046875 381.6875 C 233.046875 381.6875 233.046875 383.59375 237.976562 383.59375 L 257.328125 383.59375 L 257 372.226562 Z M 250.078125 372.226562 " transform="matrix(0.5,0,0,0.5,-15,-22.5)"/>
<path style="fill-rule:nonzero;fill:rgb(100%,100%,100%);fill-opacity:1;stroke-width:1;stroke-linecap:round;stroke-linejoin:round;stroke:rgb(14.901961%,19.607843%,21.960784%);stroke-opacity:1;stroke-miterlimit:4;" d="M 257.257812 381.523438 C 151.90625 381.625 66.414062 296.296875 66.3125 190.945312 C 66.210938 85.59375 151.539062 0.101562 256.890625 0 L 255.890625 0.539062 C 255.890625 0.539062 255.890625 2.4375 260.820312 2.4375 L 280.171875 2.4375 Z M 257.257812 381.523438 " transform="matrix(0.5,0,0,0.5,-15,-22.5)"/>
<path style="fill-rule:nonzero;fill:rgb(14.901961%,19.607843%,21.960784%);fill-opacity:1;stroke-width:1;stroke-linecap:round;stroke-linejoin:round;stroke:rgb(14.901961%,19.607843%,21.960784%);stroke-opacity:1;stroke-miterlimit:4;" d="M 317.757812 372.226562 C 317.757812 372.226562 323.039062 376.382812 326.070312 377.523438 C 329.101562 378.65625 334.796875 381.6875 334.796875 381.6875 C 334.796875 381.6875 334.796875 383.59375 329.859375 383.59375 L 310.523438 383.59375 L 310.867188 372.226562 Z M 317.757812 372.226562 " transform="matrix(0.5,0,0,0.5,-15,-22.5)"/>
<path style="fill-rule:nonzero;fill:rgb(100%,100%,100%);fill-opacity:1;stroke-width:1;stroke-linecap:round;stroke-linejoin:round;stroke:rgb(14.901961%,19.607843%,21.960784%);stroke-opacity:1;stroke-miterlimit:4;" d="M 310.578125 381.523438 C 205.226562 467.28125 50.296875 451.40625 -35.46875 346.046875 C -121.234375 240.695312 -105.351562 85.765625 0 0 L 1 0.539062 C 1 0.539062 1 2.4375 -3.9375 2.4375 L -23.242188 2.4375 Z M 254.742188 167.15625 L 239.5 207.851562 L 254.117188 207.851562 L 259.578125 196.75 Z M 254.742188 167.15625 " transform="matrix(0.5,0,0,0.5,-15,-22.5)"/>
<path style="fill-rule:nonzero;fill:rgb(100%,100%,100%);fill-opacity:1;stroke-width:1;stroke-linecap:round;stroke-linejoin:round;stroke:rgb(14.901961%,19.607843%,21.960784%);stroke-opacity:1;stroke-miterlimit:4;" d="M 321.40625 201.546875 C 315.3125 199.03125 295.742188 197.78125 294.71875 197.78125 C 293.703125 197.78125 261.890625 195.15625 259.28125 194.78125 C 256.671875 194.398438 253.679688 200.382812 253.679688 200.382812 L 267.476562 200 L 284.273438 203.359375 C 284.273438 203.359375 318.273438 215.671875 320.828125 214.929688 C 261.476562 248.90625 185.820312 228.34375 151.84375 168.992188 C 117.859375 109.640625 138.429688 33.976562 197.78125 0 " transform="matrix(0.5,0,0,0.5,-15,-22.5)"/>
<path style="fill-rule:nonzero;fill:rgb(100%,100%,100%);fill-opacity:1;stroke-width:1;stroke-linecap:round;stroke-linejoin:round;stroke:rgb(14.901961%,19.607843%,21.960784%);stroke-opacity:1;stroke-miterlimit:4;" d="M 250.320312 199.640625 L 302.921875 194.421875 L 303.296875 198.890625 L 257.78125 212.703125 C 257.78125 212.703125 249.578125 214.5625 243.226562 213.4375 C 236.882812 212.320312 239.882812 205.976562 241.367188 202.25 " transform="matrix(0.5,0,0,0.5,-15,-22.5)"/>
<path style="fill-rule:nonzero;fill:rgb(100%,100%,100%);fill-opacity:1;stroke-width:1;stroke-linecap:round;stroke-linejoin:round;stroke:rgb(14.901961%,19.607843%,21.960784%);stroke-opacity:1;stroke-miterlimit:4;" d="M 302.929688 194.421875 L 313 194.039062 L 315.976562 200.007812 L 303.296875 198.898438 Z M 302.929688 194.421875 " transform="matrix(0.5,0,0,0.5,-15,-22.5)"/>
<path style="fill-rule:nonzero;fill:rgb(14.901961%,19.607843%,21.960784%);fill-opacity:1;stroke-width:1;stroke-linecap:round;stroke-linejoin:round;stroke:rgb(14.901961%,19.607843%,21.960784%);stroke-opacity:1;stroke-miterlimit:4;" d="M 370 282.15625 L 378.59375 384.429688 C 378.578125 383.96875 378.851562 383.546875 379.273438 383.359375 C 379.695312 383.179688 380.195312 383.273438 380.515625 383.601562 C 380.84375 383.929688 380.9375 384.421875 380.757812 384.84375 C 380.578125 385.273438 380.148438 385.539062 379.6875 385.53125 L 373.84375 283.53125 Z M 427.726562 282.15625 L 436.351562 384.773438 C 436.34375 384.3125 436.609375 383.898438 437.03125 383.71875 C 437.453125 383.539062 437.9375 383.632812 438.265625 383.960938 C 438.585938 384.28125 438.679688 384.765625 438.5 385.1875 C 438.320312 385.609375 437.90625 385.875 437.453125 385.867188 L 431.578125 283.5 Z M 189.492188 282.15625 L 185 383.539062 C 185.640625 313.828125 242.679688 257.835938 312.390625 258.476562 C 382.101562 259.125 438.09375 316.15625 437.453125 385.867188 L 444.71875 284.21875 Z M 136.28125 282.15625 L 131.757812 383.15625 C 131.742188 382.695312 132.007812 382.265625 132.4375 382.078125 C 132.859375 381.890625 133.359375 381.984375 133.6875 382.3125 C 134.015625 382.640625 134.109375 383.140625 133.921875 383.5625 C 133.734375 383.992188 133.304688 384.257812 132.84375 384.242188 L 140.078125 282.929688 Z M 136.28125 282.15625 " transform="matrix(0.5,0,0,0.5,-15,-22.5)"/>
<path style="fill-rule:nonzero;fill:rgb(38.431373%,40%,91.764706%);fill-opacity:1;stroke-width:1;stroke-linecap:round;stroke-linejoin:round;stroke:rgb(14.901961%,19.607843%,21.960784%);stroke-opacity:1;stroke-miterlimit:4;" d="M 133.078125 276.492188 L 438.96875 276.492188 L 438.96875 285.273438 L 133.078125 285.273438 Z M 133.078125 276.492188 " transform="matrix(0.5,0,0,0.5,-15,-22.5)"/>
<path style="fill-rule:nonzero;fill:rgb(14.901961%,19.607843%,21.960784%);fill-opacity:1;stroke-width:1;stroke-linecap:round;stroke-linejoin:round;stroke:rgb(14.901961%,19.607843%,21.960784%);stroke-opacity:1;stroke-miterlimit:4;" d="M 133.078125 276.492188 L 438.96875 276.492188 L 438.96875 279.5 L 133.078125 279.5 Z M 133.078125 276.492188 " transform="matrix(0.5,0,0,0.5,-15,-22.5)"/>
<path style="fill-rule:nonzero;fill:rgb(14.901961%,19.607843%,21.960784%);fill-opacity:1;stroke-width:1;stroke-linecap:round;stroke-linejoin:round;stroke:rgb(14.901961%,19.607843%,21.960784%);stroke-opacity:1;stroke-miterlimit:4;" d="M 362.421875 276.492188 L 438.960938 276.492188 L 438.960938 285.273438 L 362.421875 285.273438 Z M 362.421875 276.492188 " transform="matrix(0.5,0,0,0.5,-15,-22.5)"/>
<path style="fill-rule:nonzero;fill:rgb(38.431373%,40%,91.764706%);fill-opacity:1;stroke-width:1;stroke-linecap:round;stroke-linejoin:round;stroke:rgb(14.901961%,19.607843%,21.960784%);stroke-opacity:1;stroke-miterlimit:4;" d="M 130.351562 273.570312 L 441.6875 273.570312 L 441.6875 276.921875 L 130.351562 276.921875 Z M 130.351562 273.570312 " transform="matrix(0.5,0,0,0.5,-15,-22.5)"/>
<path style="fill-rule:nonzero;fill:rgb(14.901961%,19.607843%,21.960784%);fill-opacity:1;stroke-width:1;stroke-linecap:round;stroke-linejoin:round;stroke:rgb(14.901961%,19.607843%,21.960784%);stroke-opacity:1;stroke-miterlimit:4;" d="M 365.609375 273.570312 L 441.679688 273.570312 L 441.679688 276.921875 L 365.609375 276.921875 Z M 365.609375 273.570312 " transform="matrix(0.5,0,0,0.5,-15,-22.5)"/>
<path style="fill-rule:nonzero;fill:rgb(100%,100%,100%);fill-opacity:1;stroke-width:1;stroke-linecap:round;stroke-linejoin:round;stroke:rgb(14.901961%,19.607843%,21.960784%);stroke-opacity:1;stroke-miterlimit:4;" d="M 199.703125 273.273438 L 241.476562 273.273438 C 166.015625 339.953125 50.789062 332.835938 -15.898438 257.375 C -82.578125 181.914062 -75.460938 66.679688 0 0 L 11.570312 -26.382812 C 18.851562 -26.070312 24.507812 -19.90625 24.195312 -12.625 C 23.882812 -5.34375 17.726562 0.3125 10.4375 0 L -31.34375 0 C -31.1875 -0.046875 -31.015625 -0.046875 -30.859375 0 L 199 272.132812 C 123.851562 335.601562 11.476562 326.140625 -51.992188 250.992188 C -115.46875 175.851562 -106.007812 63.476562 -30.859375 0 Z M 199.703125 273.273438 " transform="matrix(0.5,0,0,0.5,-15,-22.5)"/>
<path style="fill-rule:nonzero;fill:rgb(38.431373%,40%,91.764706%);fill-opacity:1;stroke-width:1;stroke-linecap:round;stroke-linejoin:round;stroke:rgb(14.901961%,19.607843%,21.960784%);stroke-opacity:1;stroke-miterlimit:4;" d="M 203.617188 271.210938 L 239.273438 271.210938 C 164.375 337.28125 50.101562 330.132812 -15.96875 255.242188 C -82.039062 180.34375 -74.890625 66.070312 0 0 L 9.867188 -22.507812 C 16.085938 -22.234375 20.898438 -16.96875 20.625 -10.757812 C 20.351562 -4.539062 15.085938 0.273438 8.867188 0 L -26.78125 0 C -26.640625 -0.046875 -26.5 -0.046875 -26.359375 0 L 203 270.242188 C 128.375 333.578125 16.539062 324.421875 -46.796875 249.796875 C -110.132812 175.171875 -100.984375 63.335938 -26.359375 0 Z M 203.617188 271.210938 " transform="matrix(0.5,0,0,0.5,-15,-22.5)"/>
<path style="fill-rule:nonzero;fill:rgb(100%,100%,100%);fill-opacity:1;stroke-width:1;stroke-linecap:round;stroke-linejoin:round;stroke:rgb(14.901961%,19.607843%,21.960784%);stroke-opacity:1;stroke-miterlimit:4;" d="M 179.289062 271.523438 L 242.0625 271.523438 L 242.0625 273.570312 L 179.289062 273.570312 Z M 179.289062 271.523438 " transform="matrix(0.5,0,0,0.5,-15,-22.5)"/>
<path style="fill-rule:nonzero;fill:rgb(100%,100%,100%);fill-opacity:1;stroke-width:1;stroke-linecap:round;stroke-linejoin:round;stroke:rgb(14.901961%,19.607843%,21.960784%);stroke-opacity:1;stroke-miterlimit:4;" d="M 211.640625 271.523438 L 242.070312 271.523438 L 242.070312 273.570312 L 211.640625 273.570312 Z M 251.15625 257.25 L 262.226562 257.25 L 262.226562 273.609375 L 251.15625 273.609375 Z M 251.15625 257.25 " transform="matrix(0.5,0,0,0.5,-15,-22.5)"/>
<path style="fill-rule:nonzero;fill:rgb(100%,100%,100%);fill-opacity:1;stroke-width:1;stroke-linecap:round;stroke-linejoin:round;stroke:rgb(14.901961%,19.607843%,21.960784%);stroke-opacity:1;stroke-miterlimit:4;" d="M 261.742188 271.382812 L 260.578125 271.382812 C 185.640625 343.335938 66.554688 340.921875 -5.398438 265.976562 C -77.359375 191.039062 -74.9375 71.960938 0 0 L 1.15625 0 C 1.960938 0.28125 2.4375 1.101562 2.296875 1.9375 C 2.148438 2.773438 1.429688 3.382812 0.578125 3.382812 C -0.265625 3.382812 -0.992188 2.773438 -1.132812 1.9375 C -1.28125 1.101562 -0.796875 0.28125 0 0 L 0 -4 C 1.101562 -3.523438 1.609375 -2.242188 1.132812 -1.132812 C 0.65625 -0.03125 -0.625 0.476562 -1.726562 0 L -3.21875 0 C -3.484375 -0.375 -3.421875 -0.898438 -3.078125 -1.203125 C -2.734375 -1.507812 -2.210938 -1.507812 -1.867188 -1.203125 C -1.523438 -0.898438 -1.460938 -0.375 -1.726562 0 L -0.242188 0 C 1.539062 0.382812 2.734375 2.039062 2.546875 3.84375 C 2.351562 5.648438 0.828125 7.023438 -0.984375 7.023438 C -2.796875 7.023438 -4.320312 5.648438 -4.515625 3.84375 C -4.703125 2.039062 -3.507812 0.382812 -1.726562 0 L -1.726562 4 C -3.625 3.984375 -5.179688 2.476562 -5.25 0.578125 C -5.320312 -1.3125 -3.882812 -2.929688 -1.992188 -3.085938 C -0.101562 -3.242188 1.578125 -1.882812 1.820312 0 Z M 348.71875 273.273438 L 306.9375 273.273438 C 231.476562 273.40625 170.195312 212.34375 170.0625 136.882812 C 169.921875 61.421875 230.992188 0.132812 306.453125 0 L 294.882812 -26.382812 C 302.164062 -29.578125 310.65625 -26.257812 313.851562 -18.976562 C 317.046875 -11.6875 313.734375 -3.195312 306.453125 0 L 348.226562 0 C 348.226562 11.539062 338.875 20.890625 327.34375 20.890625 C 315.804688 20.890625 306.453125 11.539062 306.453125 0 L 318.023438 26.382812 C 310.734375 26.0625 305.085938 19.90625 305.398438 12.617188 C 305.710938 5.335938 311.875 -0.3125 319.15625 0 Z M 348.71875 273.273438 " transform="matrix(0.5,0,0,0.5,-15,-22.5)"/>
<path style="fill-rule:nonzero;fill:rgb(100%,100%,100%);fill-opacity:1;stroke-width:1;stroke-linecap:round;stroke-linejoin:round;stroke:rgb(14.901961%,19.607843%,21.960784%);stroke-opacity:1;stroke-miterlimit:4;" d="M 369.132812 273.570312 L 306.359375 273.570312 L 306.359375 271.523438 L 369.132812 271.523438 Z M 369.132812 273.570312 " transform="matrix(0.5,0,0,0.5,-15,-22.5)"/>
<path style="fill-rule:nonzero;fill:rgb(100%,100%,100%);fill-opacity:1;stroke-width:1;stroke-linecap:round;stroke-linejoin:round;stroke:rgb(14.901961%,19.607843%,21.960784%);stroke-opacity:1;stroke-miterlimit:4;" d="M 349.640625 273.570312 L 306.359375 273.570312 L 306.359375 271.523438 L 349.640625 271.523438 Z M 322.742188 256.21875 C 323.632812 255.59375 324.828125 255.632812 325.679688 256.304688 C 326.53125 256.984375 326.84375 258.140625 326.4375 259.148438 C 326.03125 260.164062 325.007812 260.78125 323.921875 260.679688 C 322.835938 260.578125 321.953125 259.78125 321.742188 258.710938 Z M 322.742188 256.21875 " transform="matrix(0.5,0,0,0.5,-15,-22.5)"/>
<path style="fill-rule:nonzero;fill:rgb(100%,100%,100%);fill-opacity:1;stroke-width:1;stroke-linecap:round;stroke-linejoin:round;stroke:rgb(14.901961%,19.607843%,21.960784%);stroke-opacity:1;stroke-miterlimit:4;" d="M 127.367188 178.570312 L 130.453125 209 L 144.453125 249.53125 L 139.65625 252.273438 L 123.21875 215.171875 L 115.007812 183.320312 C 115.007812 183.320312 114.320312 173.742188 117.75 172.320312 C 121.179688 170.898438 126 172.40625 127.367188 178.570312 Z M 144.492188 249.570312 C 144.492188 249.570312 147.570312 256.078125 147.921875 257.789062 C 148.273438 259.5 148.617188 262.992188 147.273438 264.546875 C 145.640625 266.429688 144.148438 264.976562 144.148438 264.976562 C 144.148438 264.976562 140.039062 263.976562 140.039062 260.53125 C 140.039062 257.078125 139.703125 252.3125 139.703125 252.3125 Z M 144.492188 249.570312 " transform="matrix(0.5,0,0,0.5,-15,-22.5)"/>
<path style="fill:none;stroke-width:1;stroke-linecap:round;stroke-linejoin:round;stroke:rgb(14.901961%,19.607843%,21.960784%);stroke-opacity:1;stroke-miterlimit:4;" d="M 141.132812 259.78125 L 146.898438 261.28125 " transform="matrix(0.5,0,0,0.5,-15,-22.5)"/>
<path style="fill-rule:nonzero;fill:rgb(100%,100%,100%);fill-opacity:1;stroke-width:1;stroke-linecap:round;stroke-linejoin:round;stroke:rgb(14.901961%,19.607843%,21.960784%);stroke-opacity:1;stroke-miterlimit:4;" d="M 142.507812 255.890625 L 144.148438 258.46875 C 144.148438 258.46875 140.328125 265 142.382812 263.289062 C 144.429688 261.578125 148.257812 259.5 147.921875 257.789062 C 76.734375 259.21875 17.867188 202.664062 16.445312 131.476562 C 15.023438 60.289062 71.570312 1.421875 142.757812 0 " transform="matrix(0.5,0,0,0.5,-15,-22.5)"/>
<path style="fill-rule:nonzero;fill:rgb(14.901961%,19.607843%,21.960784%);fill-opacity:1;stroke-width:1;stroke-linecap:round;stroke-linejoin:round;stroke:rgb(14.901961%,19.607843%,21.960784%);stroke-opacity:1;stroke-miterlimit:4;" d="M 111 142 C 111 142 107.476562 138.203125 99.359375 140.640625 C 91.242188 143.078125 89.359375 156.078125 89.609375 162.570312 C 89.859375 169.0625 96.109375 176.382812 94.21875 179.632812 C 92.328125 182.882812 85.28125 190.460938 85.820312 198.632812 C 86.359375 206.796875 93.132812 213.25 102.882812 210.273438 C 112.632812 207.289062 111 195.359375 109.0625 191 C 107.117188 186.640625 111.226562 184.773438 112.578125 175.289062 C 113.929688 165.8125 105.273438 157.960938 105.273438 151.1875 C 105.273438 144.421875 112.273438 145.507812 112.273438 145.507812 Z M 111 142 " transform="matrix(0.5,0,0,0.5,-15,-22.5)"/>
<path style="fill:none;stroke-width:0.5;stroke-linecap:round;stroke-linejoin:round;stroke:rgb(100%,100%,100%);stroke-opacity:1;stroke-miterlimit:4;" d="M 98.796875 167.703125 C 100.078125 170.34375 101.570312 173.15625 103.046875 176.203125 C 107.992188 186.28125 104.132812 189.921875 96.617188 195.5 C 89.109375 201.078125 90.828125 207.9375 92.757812 209 M 108.421875 144.671875 C 108.421875 144.671875 98.34375 145.53125 95.757812 151.960938 C 94.203125 155.867188 95.398438 160.25 97.703125 165.351562 M 101.046875 206.492188 C 44.03125 188.734375 12.195312 128.117188 29.953125 71.09375 C 47.710938 14.078125 108.328125 -17.757812 165.351562 0 " transform="matrix(0.5,0,0,0.5,-15,-22.5)"/>
<path style="fill:none;stroke-width:0.5;stroke-linecap:round;stroke-linejoin:round;stroke:rgb(100%,100%,100%);stroke-opacity:1;stroke-miterlimit:4;" d="M 111 144 C 111 144 101.5625 145.710938 99.421875 152.570312 C 97.28125 159.429688 109.929688 169.570312 110.570312 177.03125 C 111.210938 184.492188 102.203125 188.851562 99 194.640625 C 96.75 198.703125 97 203.171875 99.367188 205.421875 " transform="matrix(0.5,0,0,0.5,-15,-22.5)"/>
<path style="fill-rule:nonzero;fill:rgb(100%,100%,100%);fill-opacity:1;stroke-width:1;stroke-linecap:round;stroke-linejoin:round;stroke:rgb(14.901961%,19.607843%,21.960784%);stroke-opacity:1;stroke-miterlimit:4;" d="M 135.21875 282.070312 C 135.21875 282.070312 132.890625 302.1875 130.546875 308.609375 C 128.210938 315.03125 122.96875 365.476562 122.679688 368.398438 C 122.390625 371.320312 130.257812 378.023438 133.46875 380.070312 C 136.679688 382.117188 135.21875 382.6875 131.71875 382.976562 C 128.21875 383.273438 124.140625 382.6875 122.390625 379.476562 C 120.640625 376.273438 116.546875 375.398438 116.546875 375.398438 L 115.96875 382.398438 L 114.796875 382.398438 L 113.929688 373.648438 C 10.75 405.109375 -98.398438 346.96875 -129.859375 243.789062 C -161.320312 140.609375 -103.179688 31.460938 0 0 C 1.460938 -3.210938 2 -9.921875 2 -19 C 2 -28.078125 0.25 -42.632812 1.117188 -49.632812 C 1.992188 -56.632812 5.5 -61.882812 5.5 -67.710938 C 5.5 -73.539062 5.789062 -82.289062 5.789062 -82.289062 Z M 135.21875 282.070312 " transform="matrix(0.5,0,0,0.5,-15,-22.5)"/>
<path style="fill-rule:nonzero;fill:rgb(14.901961%,19.607843%,21.960784%);fill-opacity:1;stroke-width:1;stroke-linecap:round;stroke-linejoin:round;stroke:rgb(14.901961%,19.607843%,21.960784%);stroke-opacity:1;stroke-miterlimit:4;" d="M 113.929688 373.648438 C 10.75 405.109375 -98.398438 346.96875 -129.859375 243.789062 C -161.320312 140.609375 -103.179688 31.460938 0 0 C 1.8125 3.0625 7 7.210938 11 8.859375 C 10.421875 16 4.742188 21.671875 -2.40625 22.226562 C -9.546875 22.789062 -16.039062 18.078125 -17.726562 11.109375 C -19.40625 4.140625 -15.78125 -3.015625 -9.171875 -5.78125 C -2.554688 -8.539062 5.085938 -6.09375 8.859375 0 C 9.328125 0.351562 9.773438 0.648438 10.140625 0.890625 C 13.351562 2.890625 11.890625 3.507812 8.390625 3.796875 C 4.890625 4.09375 0.8125 3.507812 -0.9375 0.296875 C -2.6875 -2.90625 -6.78125 -3.78125 -6.78125 -3.78125 L -7.359375 3.21875 L -8.53125 3.21875 Z M 113.929688 373.648438 " transform="matrix(0.5,0,0,0.5,-15,-22.5)"/>
<path style="fill-rule:nonzero;fill:rgb(100%,100%,100%);fill-opacity:1;stroke-width:1;stroke-linecap:round;stroke-linejoin:round;stroke:rgb(14.901961%,19.607843%,21.960784%);stroke-opacity:1;stroke-miterlimit:4;" d="M 118.296875 285.28125 C 118.296875 285.28125 113.296875 300.148438 108.679688 312.976562 C 104.0625 325.8125 92.929688 355.273438 91.757812 360.523438 C 90.59375 365.773438 90.007812 375.398438 86.757812 380.359375 C 83.507812 385.320312 80.34375 387.648438 80.921875 378.898438 C 81.5 370.148438 86.757812 363.726562 87.921875 357.023438 C 89.078125 350.3125 89.671875 326.109375 93.75 315.320312 C 97.828125 304.53125 102.210938 295.78125 102.75 292.570312 C 21.960938 320.945312 -66.539062 278.453125 -94.90625 197.65625 C -123.28125 116.867188 -80.789062 28.375 0 0 Z M 118.296875 285.28125 " transform="matrix(0.5,0,0,0.5,-15,-22.5)"/>
<path style="fill-rule:nonzero;fill:rgb(14.901961%,19.607843%,21.960784%);fill-opacity:1;stroke-width:1;stroke-linecap:round;stroke-linejoin:round;stroke:rgb(14.901961%,19.607843%,21.960784%);stroke-opacity:1;stroke-miterlimit:4;" d="M 81.523438 375.148438 C -22.078125 397.664062 -124.304688 331.929688 -146.8125 228.335938 C -169.328125 124.742188 -103.59375 22.507812 0 0 C 1.679688 1.882812 4.390625 -1.773438 5.796875 -4 C -0.492188 -11.59375 0.109375 -22.75 7.171875 -29.632812 C 14.234375 -36.515625 25.40625 -36.820312 32.835938 -30.328125 C 40.265625 -23.84375 41.460938 -12.734375 35.59375 -4.8125 C 29.726562 3.117188 18.757812 5.210938 10.382812 0 C 7.171875 4.953125 3.960938 7.289062 4.539062 -1.460938 C 18.328125 -3.132812 31.03125 6.234375 33.515625 19.898438 C 36 33.5625 27.40625 46.796875 13.90625 50.085938 C 0.40625 53.367188 -13.3125 45.5625 -17.382812 32.28125 C -21.460938 19.007812 -14.476562 4.851562 -1.460938 0 Z M 81.523438 375.148438 " transform="matrix(0.5,0,0,0.5,-15,-22.5)"/>
<path style="fill-rule:nonzero;fill:rgb(100%,100%,100%);fill-opacity:1;stroke-width:1;stroke-linecap:round;stroke-linejoin:round;stroke:rgb(14.901961%,19.607843%,21.960784%);stroke-opacity:1;stroke-miterlimit:4;" d="M 116 167.898438 C 116 167.898438 114.25 169.359375 113.078125 179.28125 C 111.90625 189.203125 119.210938 220.109375 119.210938 220.109375 C 119.210938 220.109375 106.671875 240.648438 103.75 250.859375 C 100.828125 261.070312 99.078125 299.320312 99.078125 299.320312 C 99.078125 299.320312 105.210938 301.65625 117.75 302.53125 C 130.289062 303.398438 137 300.203125 137 300.203125 C 137 300.203125 137.578125 245.609375 137.578125 237.203125 C 137.578125 228.789062 138.171875 209.65625 139.039062 207.328125 C 139.90625 205 142.539062 198.867188 142.539062 196.539062 C 142.539062 194.210938 125 169.359375 125 169.359375 Z M 116 167.898438 " transform="matrix(0.5,0,0,0.5,-15,-22.5)"/>
<path style="fill-rule:nonzero;fill:rgb(14.901961%,19.607843%,21.960784%);fill-opacity:1;stroke-width:1;stroke-linecap:round;stroke-linejoin:round;stroke:rgb(14.901961%,19.607843%,21.960784%);stroke-opacity:1;stroke-miterlimit:4;" d="M 103.71875 250.859375 C 106.023438 242.859375 115.539062 221.578125 118.9375 217.921875 C 124.109375 219.640625 133.539062 221.34375 137.75 220.078125 C 137.617188 223.078125 137.546875 234.28125 137.546875 237.148438 C 137.546875 245.609375 136.96875 300.148438 136.96875 300.148438 C 136.96875 300.148438 130.257812 303.359375 117.71875 302.476562 C 105.179688 301.601562 99.046875 299.273438 99.046875 299.273438 C 99.046875 299.273438 100.796875 261.070312 103.71875 250.859375 Z M 122.46875 133.523438 C 122.46875 133.523438 125.601562 126.703125 131.789062 126.703125 C 137.976562 126.703125 140.726562 132.203125 139.359375 137.007812 C 137.992188 141.820312 143.476562 140.453125 144.171875 143.546875 C 144.859375 146.648438 139.703125 148.703125 136.953125 148.703125 C 134.203125 148.703125 122.46875 133.523438 122.46875 133.523438 Z M 122.46875 133.523438 " transform="matrix(0.5,0,0,0.5,-15,-22.5)"/>
<path style="fill:none;stroke-width:0.5;stroke-linecap:round;stroke-linejoin:round;stroke:rgb(100%,100%,100%);stroke-opacity:1;stroke-miterlimit:4;" d="M 131.507812 132.820312 C 133.351562 131.820312 135.507812 131.101562 136.507812 132.65625 C 138.4375 135.65625 132.4375 138.023438 134.367188 141.242188 C 136.296875 144.460938 141.023438 143.601562 140.796875 144.671875 C 140.578125 145.742188 137.59375 146.382812 137.59375 146.382812 M 128.359375 135 C 128.359375 135 128.953125 134.492188 129.828125 133.867188 " transform="matrix(0.5,0,0,0.5,-15,-22.5)"/>
<path style="fill-rule:nonzero;fill:rgb(100%,100%,100%);fill-opacity:1;stroke-width:1;stroke-linecap:round;stroke-linejoin:round;stroke:rgb(14.901961%,19.607843%,21.960784%);stroke-opacity:1;stroke-miterlimit:4;" d="M 138.34375 149.390625 C 97.085938 149.734375 63.359375 116.578125 63.015625 75.328125 C 62.664062 34.070312 95.828125 0.351562 137.078125 0 C 136.578125 -3.6875 135.5 -7.320312 133.460938 -9.359375 C 132.375 -6.335938 130.578125 -3.625 128.210938 -1.453125 C 122.898438 0.40625 118.34375 4.078125 119.320312 12.929688 C 120.398438 22.679688 127.992188 25.117188 127.992188 25.117188 L 128.53125 31.117188 L 136.109375 34.640625 L 136.382812 28.140625 C 136.382812 28.140625 141.523438 30.296875 143.382812 30.03125 C 145.242188 29.757812 145.820312 27.320312 146.632812 23.796875 C 139.65625 57.351562 106.804688 78.90625 73.25 71.929688 C 39.695312 64.960938 18.148438 32.101562 25.117188 -1.453125 L 27.390625 -3.710938 C 28.679688 -5.023438 27.40625 -5.34375 25.820312 -6.296875 Z M 138.34375 149.390625 " transform="matrix(0.5,0,0,0.5,-15,-22.5)"/>
<path style="fill-rule:nonzero;fill:rgb(14.901961%,19.607843%,21.960784%);fill-opacity:1;stroke-width:1;stroke-linecap:round;stroke-linejoin:round;stroke:rgb(14.901961%,19.607843%,21.960784%);stroke-opacity:1;stroke-miterlimit:4;" d="M 109.867188 148.242188 C 108.867188 139.390625 113.453125 135.71875 118.757812 133.859375 C 124.695312 127.921875 134.3125 127.921875 140.25 133.859375 C 146.1875 139.796875 146.1875 149.414062 140.25 155.351562 C 138.726562 155.039062 141.320312 159.507812 138.9375 162.351562 C 129.804688 169.023438 117.117188 167.734375 109.507812 159.367188 C 101.898438 151 101.828125 138.242188 109.335938 129.78125 C 116.851562 121.328125 129.53125 119.898438 138.734375 126.46875 C 147.945312 133.039062 150.710938 145.5 145.15625 155.351562 C 145.15625 155.351562 142.460938 153.179688 141.640625 156.15625 C 140.820312 159.140625 141.101562 161.296875 143.273438 161.851562 C 145.4375 162.398438 146.273438 161.851562 146.273438 161.851562 C 146.273438 161.851562 144.828125 165.257812 142.273438 166.671875 L 142.273438 166.179688 C 142.273438 166.179688 134.648438 163.789062 133.523438 154.03125 Z M 109.867188 148.242188 " transform="matrix(0.5,0,0,0.5,-15,-22.5)"/>
<path style="fill-rule:nonzero;fill:rgb(100%,100%,100%);fill-opacity:1;stroke-width:1;stroke-linecap:round;stroke-linejoin:round;stroke:rgb(14.901961%,19.607843%,21.960784%);stroke-opacity:1;stroke-miterlimit:4;" d="M 130.546875 168.1875 L 129.101562 176.070312 L 113.640625 167.898438 L 115.101562 160.609375 Z M 123.078125 234.632812 C 58.289062 268.617188 -21.789062 243.648438 -55.773438 178.851562 C -89.765625 114.0625 -64.789062 33.984375 0 0 C 1.273438 -0.078125 3 -1.507812 4.28125 -0.898438 C 5.5625 -0.289062 7.351562 3.5625 7.351562 3.5625 C 7.351562 3.5625 9.046875 4.421875 8.5625 5.328125 C 8.070312 6.242188 5.96875 7.078125 5.96875 7.078125 C 5.96875 7.078125 3.96875 8.96875 2.8125 9.15625 C 1.648438 9.351562 -5.421875 4.15625 -5.421875 4.15625 Z M 123.078125 234.632812 " transform="matrix(0.5,0,0,0.5,-15,-22.5)"/>
<path style="fill-rule:nonzero;fill:rgb(100%,100%,100%);fill-opacity:1;stroke-width:1;stroke-linecap:round;stroke-linejoin:round;stroke:rgb(14.901961%,19.607843%,21.960784%);stroke-opacity:1;stroke-miterlimit:4;" d="M 123.828125 238.367188 C 58.007812 239.40625 3.804688 186.882812 2.773438 121.054688 C 1.742188 55.234375 54.265625 1.03125 120.09375 0 L 100.65625 -18.203125 L 121.820312 -51.101562 C 135.929688 -48.984375 145.65625 -35.835938 143.546875 -21.726562 C 141.429688 -7.617188 128.28125 2.109375 114.171875 0 L 95.828125 36.453125 C 85.765625 34.492188 79.195312 24.742188 81.15625 14.671875 C 83.117188 4.609375 92.867188 -1.960938 102.929688 0 L 103 0.0703125 C 104.84375 2.90625 125.078125 17.757812 131 19.703125 C 125.5625 50.4375 96.234375 70.9375 65.5 65.5 C 34.765625 60.0625 14.257812 30.734375 19.703125 0 Z M 123.828125 238.367188 " transform="matrix(0.5,0,0,0.5,-15,-22.5)"/>
<path style="fill-rule:nonzero;fill:rgb(100%,100%,100%);fill-opacity:1;stroke-width:1;stroke-linecap:round;stroke-linejoin:round;stroke:rgb(14.901961%,19.607843%,21.960784%);stroke-opacity:1;stroke-miterlimit:4;" d="M 200.710938 188 C 200.710938 188 203.21875 195.773438 203.21875 197.28125 C 148.742188 196.382812 105.3125 151.484375 106.210938 97.007812 C 107.109375 42.53125 152 -0.898438 206.476562 0 L 208.6875 3.429688 C 207.742188 3.0625 207.273438 1.992188 207.648438 1.046875 C 208.015625 0.101562 209.085938 -0.367188 210.03125 0 L 206.617188 2 C 206.617188 2 206.117188 10 205.617188 11 C 205.117188 12 196.617188 11.757812 196.617188 11.757812 L 193.859375 17.023438 L 179.5625 11.507812 L 183.320312 1.21875 L 182.539062 -14.3125 C 182.539062 -14.3125 191.320312 -22.070312 205.867188 -17.3125 Z M 200.710938 188 " transform="matrix(0.5,0,0,0.5,-15,-22.5)"/>
<path style="fill-rule:nonzero;fill:rgb(14.901961%,19.607843%,21.960784%);fill-opacity:1;stroke-width:1;stroke-linecap:round;stroke-linejoin:round;stroke:rgb(14.901961%,19.607843%,21.960784%);stroke-opacity:1;stroke-miterlimit:4;" d="M 190.921875 206.898438 C 190.921875 206.898438 188.429688 209.242188 186.5625 209.398438 C 184.6875 209.5625 178.609375 208.148438 178.140625 207.53125 C 177.671875 206.90625 173.46875 198.179688 173.617188 193.96875 C 173.773438 189.757812 173.9375 183.53125 178.453125 181.507812 C 182.960938 179.492188 190.140625 180.101562 193.882812 177.773438 C 197.617188 175.4375 203.539062 173.5625 206.65625 177.609375 C 209.78125 181.65625 207.4375 187.273438 204.953125 189.609375 C 202.460938 191.953125 199.34375 192.609375 199.648438 193.609375 C 199.960938 194.609375 201.828125 195.789062 200.742188 197.351562 C 199.648438 198.90625 195.742188 200.351562 195.742188 200.929688 C 195.742188 201.507812 196.679688 203.742188 195.59375 204.046875 C 194.5 204.359375 193.398438 201.867188 192.3125 201.867188 C 191.21875 201.867188 188.898438 204.882812 190.921875 206.898438 Z M 190.921875 206.898438 " transform="matrix(0.5,0,0,0.5,-15,-22.5)"/>
<path style="fill:none;stroke-width:0.5;stroke-linecap:round;stroke-linejoin:round;stroke:rgb(100%,100%,100%);stroke-opacity:1;stroke-miterlimit:4;" d="M 184.40625 199.75 C 129.25 199.289062 84.90625 154.203125 85.367188 99.046875 C 85.820312 43.882812 130.914062 -0.460938 186.070312 0 M 207.6875 -17.8125 C 210.976562 -20.882812 215.875 -21.46875 219.796875 -19.257812 C 223.71875 -17.054688 225.757812 -12.5625 224.835938 -8.15625 C 223.914062 -3.75 220.25 -0.453125 215.773438 0 C 211.773438 2.070312 206.4375 3.757812 202.898438 6.359375 M 216.226562 1.976562 C 216.226562 1.976562 212.679688 4.976562 208.882812 8.070312 C 198.25 21.296875 179.203125 24.070312 165.242188 14.421875 C 151.273438 4.773438 147.132812 -14.015625 155.742188 -28.640625 C 164.34375 -43.265625 182.789062 -48.765625 198 -41.242188 C 213.210938 -33.710938 220.03125 -15.71875 213.632812 0 " transform="matrix(0.5,0,0,0.5,-15,-22.5)"/>
<path style="fill-rule:nonzero;fill:rgb(100%,100%,100%);fill-opacity:1;stroke-width:1;stroke-linecap:round;stroke-linejoin:round;stroke:rgb(14.901961%,19.607843%,21.960784%);stroke-opacity:1;stroke-miterlimit:4;" d="M 190.671875 207.320312 L 192.671875 207.820312 C 135.28125 261.023438 45.632812 257.632812 -7.578125 200.242188 C -60.78125 142.859375 -57.390625 53.203125 0 0 " transform="matrix(0.5,0,0,0.5,-15,-22.5)"/>
<path style="fill:none;stroke-width:1;stroke-linecap:round;stroke-linejoin:round;stroke:rgb(14.901961%,19.607843%,21.960784%);stroke-opacity:1;stroke-miterlimit:4;" d="M 192.992188 201.953125 L 207.109375 198.453125 M 203.476562 198.171875 L 206.703125 198.3125 C 206.703125 198.3125 207.8125 201.953125 204.460938 202.367188 " transform="matrix(0.5,0,0,0.5,-15,-22.5)"/>
<path style="fill-rule:nonzero;fill:rgb(14.901961%,19.607843%,21.960784%);fill-opacity:1;stroke-width:1;stroke-linecap:round;stroke-linejoin:round;stroke:rgb(14.901961%,19.607843%,21.960784%);stroke-opacity:1;stroke-miterlimit:4;" d="M 189.242188 371.0625 C 189.242188 371.0625 202.242188 379.273438 204.53125 379.273438 C 206.820312 379.273438 207.960938 381.328125 206.820312 381.5625 C 205.679688 381.789062 198.601562 382.007812 193.820312 382.242188 C 189.039062 382.46875 185.820312 382.007812 183.09375 382.007812 C 180.359375 382.007812 177.148438 382.242188 175.78125 381.5625 C 174.40625 380.882812 176.703125 373.109375 176.703125 371.742188 C 176.703125 370.367188 187.640625 370.140625 189.242188 371.0625 Z M 189.242188 371.0625 " transform="matrix(0.5,0,0,0.5,-15,-22.5)"/>
<path style="fill-rule:nonzero;fill:rgb(100%,100%,100%);fill-opacity:1;stroke-width:1;stroke-linecap:round;stroke-linejoin:round;stroke:rgb(14.901961%,19.607843%,21.960784%);stroke-opacity:1;stroke-miterlimit:4;" d="M 206 379.609375 C 200.953125 381.273438 192.757812 380.179688 187.84375 379.726562 C 183.953125 379.382812 177.84375 379.296875 175.351562 379.28125 C 175.25 380.453125 175.351562 381.34375 175.742188 381.5625 C 177.109375 382.242188 180.3125 382.007812 183.046875 382.007812 C 185.789062 382.007812 188.976562 382.46875 193.78125 382.242188 C 198.578125 382.007812 205.648438 381.78125 206.78125 381.5625 C 207.671875 381.382812 207.25 380.203125 206 379.609375 Z M 206 379.609375 " transform="matrix(0.5,0,0,0.5,-15,-22.5)"/>
<path style="fill-rule:nonzero;fill:rgb(38.431373%,40%,91.764706%);fill-opacity:1;stroke-width:1;stroke-linecap:round;stroke-linejoin:round;stroke:rgb(14.901961%,19.607843%,21.960784%);stroke-opacity:1;stroke-miterlimit:4;" d="M 199.507812 314.65625 L 189.25 366.109375 L 191.390625 371.453125 C 204.96875 370.242188 216.953125 380.265625 218.164062 393.84375 C 219.375 407.421875 209.351562 419.414062 195.773438 420.617188 C 195.773438 420.617188 194.632812 414.90625 195.320312 414.21875 C 196.007812 413.53125 196.226562 410.796875 196.226562 410.796875 L 202.15625 358.976562 Z M 199.507812 314.65625 " transform="matrix(0.5,0,0,0.5,-15,-22.5)"/>
<path style="fill-rule:nonzero;fill:rgb(14.901961%,19.607843%,21.960784%);fill-opacity:1;stroke-width:1;stroke-linecap:round;stroke-linejoin:round;stroke:rgb(14.901961%,19.607843%,21.960784%);stroke-opacity:1;stroke-miterlimit:4;" d="M 230.78125 369.320312 C 230.78125 369.320312 238.78125 375.9375 242.429688 377.078125 C 246.078125 378.21875 249.960938 379.359375 249.960938 380.5 C 249.960938 381.640625 241.289062 382.78125 234.671875 382.101562 C 228.046875 381.421875 218 378.453125 215.71875 378.453125 C 213.4375 378.453125 213.890625 372.507812 213.890625 371.601562 C 213.890625 370.6875 225.078125 363.382812 230.78125 369.320312 Z M 230.78125 369.320312 " transform="matrix(0.5,0,0,0.5,-15,-22.5)"/>
<path style="fill-rule:nonzero;fill:rgb(100%,100%,100%);fill-opacity:1;stroke-width:1;stroke-linecap:round;stroke-linejoin:round;stroke:rgb(14.901961%,19.607843%,21.960784%);stroke-opacity:1;stroke-miterlimit:4;" d="M 250 380.5 C 250 380.09375 249.492188 379.679688 248.679688 379.273438 C 143.945312 379.3125 59.015625 294.4375 58.976562 189.703125 C 58.9375 84.96875 143.804688 0.0390625 248.539062 0 C 241.96875 -0.9375 236.46875 -2.203125 233.65625 -2.898438 C 233.898438 -1.671875 234.367188 -0.679688 235.296875 -0.679688 C 237.578125 -0.679688 247.632812 2.320312 254.25 2.96875 C 260.867188 3.617188 269.539062 2.507812 269.539062 1.367188 Z M 250 380.5 " transform="matrix(0.5,0,0,0.5,-15,-22.5)"/>
<path style="fill-rule:nonzero;fill:rgb(38.431373%,40%,91.764706%);fill-opacity:1;stroke-width:1;stroke-linecap:round;stroke-linejoin:round;stroke:rgb(14.901961%,19.607843%,21.960784%);stroke-opacity:1;stroke-miterlimit:4;" d="M 191.070312 291.601562 C 110.546875 344.359375 2.5 321.859375 -50.265625 241.335938 C -103.03125 160.8125 -80.523438 52.765625 0 0 C 11.640625 1.367188 37.648438 3 38.101562 5.9375 C 38.546875 8.882812 17.921875 70.671875 17.921875 72.257812 C 17.921875 73.851562 19.742188 75.460938 20.203125 76.367188 C -0.890625 80.304688 -21.179688 66.40625 -25.117188 45.3125 C -29.054688 24.226562 -15.148438 3.9375 5.9375 0 C 5.9375 0 0.351562 6 -3.992188 7.632812 C -8.328125 9.257812 -11.992188 7.726562 -12.890625 7.726562 C -13.789062 7.726562 -13.796875 1.570312 -13.109375 -1.398438 C -12.421875 -4.367188 -11.289062 -11.898438 -11.0625 -12.578125 C -10.828125 -13.257812 228 313.289062 228 313.289062 C 228 313.289062 194 318.773438 173.6875 316.476562 C 153.382812 314.1875 151.320312 311.007812 150.179688 306.210938 C 149.039062 301.40625 151.320312 291.828125 151.320312 291.828125 Z M 191.070312 291.601562 " transform="matrix(0.5,0,0,0.5,-15,-22.5)"/>
<path style="fill:none;stroke-width:1;stroke-linecap:round;stroke-linejoin:round;stroke:rgb(14.901961%,19.607843%,21.960784%);stroke-opacity:1;stroke-miterlimit:4;" d="M 188.5 306.390625 C 103.890625 305.867188 35.726562 236.859375 36.242188 152.257812 C 36.765625 67.648438 105.773438 -0.515625 190.382812 0 M 198.140625 -14.15625 C 176.21875 -54.648438 189.914062 -105.21875 229.273438 -129.117188 C 268.625 -153.007812 319.804688 -141.84375 345.625 -103.71875 C 371.445312 -65.59375 362.820312 -13.921875 326.03125 13.75 C 289.234375 41.429688 237.195312 35.382812 207.726562 0 M 209.539062 -7.296875 C 201.859375 -16.757812 202.390625 -30.453125 210.78125 -39.289062 C 219.171875 -48.125 232.820312 -49.359375 242.664062 -42.171875 C 252.507812 -34.992188 255.484375 -21.617188 249.625 -10.929688 C 243.773438 -0.242188 230.890625 4.4375 219.539062 0 " transform="matrix(0.5,0,0,0.5,-15,-22.5)"/>
<path style="fill-rule:nonzero;fill:rgb(100%,100%,100%);fill-opacity:1;stroke-width:1;stroke-linecap:round;stroke-linejoin:round;stroke:rgb(14.901961%,19.607843%,21.960784%);stroke-opacity:1;stroke-miterlimit:4;" d="M 243.820312 309 C 244.601562 308.703125 245.351562 308.390625 246.0625 308.070312 M 228 313.289062 C 141.484375 291.179688 89.28125 203.125 111.390625 116.609375 C 133.5 30.09375 221.554688 -22.109375 308.070312 0 M 321.460938 -72.523438 C 321.9375 -74.429688 322.742188 -74.28125 322.101562 -74.90625 C 321.21875 -75.789062 320.507812 -74.75 317.960938 -73.320312 C 315.40625 -71.890625 312.867188 -70.140625 312.867188 -70.140625 C 314.75 -72.023438 317.796875 -72.023438 319.679688 -70.140625 C 321.5625 -68.257812 321.5625 -65.210938 319.679688 -63.328125 C 319.679688 -64.328125 318.882812 -64.132812 318.5625 -63.171875 C 318.242188 -62.210938 315.382812 -60.46875 315.21875 -59.671875 C 315.0625 -58.867188 314.492188 -55.726562 314.492188 -55.726562 C 313.578125 -54.359375 313.578125 -47.96875 313.578125 -47.96875 L 295.046875 -34.046875 L 285.6875 -23.046875 C 285.6875 -23.046875 289.796875 -16.429688 292.078125 -17.34375 C 294.359375 -18.25 295.5 -19.171875 300.976562 -23.742188 C 305.617188 -27.609375 317.25 -45.460938 317.25 -45.460938 C 305.664062 -64.101562 309.898438 -88.460938 327.09375 -102.101562 C 344.28125 -115.742188 368.96875 -114.328125 384.492188 -98.8125 C 400.007812 -83.289062 401.421875 -58.601562 387.78125 -41.414062 C 374.140625 -24.21875 349.78125 -19.984375 331.140625 -31.570312 L 331.140625 -30.367188 Z M 235.71875 -93.640625 C 235.71875 -93.640625 237.476562 -100.242188 244.960938 -98.921875 C 252.4375 -97.601562 258.15625 -91.4375 259.476562 -89.242188 C 260.796875 -87.039062 235.28125 -90.117188 235.28125 -90.117188 Z M 235.71875 -93.640625 " transform="matrix(0.5,0,0,0.5,-15,-22.5)"/>
<path style="fill-rule:nonzero;fill:rgb(100%,100%,100%);fill-opacity:1;stroke-width:1;stroke-linecap:round;stroke-linejoin:round;stroke:rgb(14.901961%,19.607843%,21.960784%);stroke-opacity:1;stroke-miterlimit:4;" d="M 211.773438 274 C 211.773438 274 210.03125 275.882812 211.773438 278.84375 C 212.960938 280.890625 215.0625 282.460938 219.078125 281.773438 C 222.84375 281.109375 228.492188 271.773438 228.492188 265.203125 C 228.492188 258.632812 223.648438 258.203125 221.890625 259.476562 C 220.132812 260.757812 211.773438 274 211.773438 274 Z M 211.773438 274 " transform="matrix(0.5,0,0,0.5,-15,-22.5)"/>
<path style="fill-rule:nonzero;fill:rgb(100%,100%,100%);fill-opacity:1;stroke-width:1;stroke-linecap:round;stroke-linejoin:round;stroke:rgb(14.901961%,19.607843%,21.960784%);stroke-opacity:1;stroke-miterlimit:4;" d="M 171.890625 215.59375 C 171.890625 215.59375 154.09375 224.039062 151.578125 225.59375 C 149.070312 227.140625 147.46875 247.039062 147.46875 250.46875 C 147.46875 253.898438 149.976562 287.46875 150.65625 293.148438 C 151.34375 298.828125 173.257812 302.742188 180.570312 300.679688 C 187.882812 298.617188 195 293.429688 195 291.601562 C 195 289.773438 194.3125 274.257812 194.773438 271.289062 C 195.226562 268.320312 199.328125 255.773438 199.328125 255.773438 L 211.789062 275.648438 C 211.789062 275.648438 213.101562 278.09375 217.726562 276.171875 C 224.351562 273.429688 224.898438 262.84375 224.898438 262.84375 C 224.898438 262.84375 217.601562 250.0625 215.539062 243.671875 C 213.476562 237.28125 212.539062 232.476562 211.65625 231.34375 C 210.78125 230.203125 190.203125 220.609375 186.546875 218.101562 C 126.320312 218.796875 76.9375 170.53125 76.242188 110.304688 C 75.554688 50.078125 123.8125 0.695312 184.039062 0 Z M 171.890625 215.59375 " transform="matrix(0.5,0,0,0.5,-15,-22.5)"/>
<path style="fill:none;stroke-width:1;stroke-linecap:round;stroke-linejoin:round;stroke:rgb(14.901961%,19.607843%,21.960784%);stroke-opacity:1;stroke-miterlimit:4;" d="M 199.28125 255.773438 L 193.351562 247.09375 M 198.320312 254.53125 L 187.867188 249.382812 " transform="matrix(0.5,0,0,0.5,-15,-22.5)"/>
<path style="fill-rule:nonzero;fill:rgb(14.901961%,19.607843%,21.960784%);fill-opacity:1;stroke-width:1;stroke-linecap:round;stroke-linejoin:round;stroke:rgb(14.901961%,19.607843%,21.960784%);stroke-opacity:1;stroke-miterlimit:4;" d="M 167.351562 320 L 176.46875 384.820312 C 70.203125 433.554688 -55.445312 386.90625 -104.171875 280.648438 C -152.90625 174.382812 -106.265625 48.734375 0 0 L -6.429688 -65.632812 Z M 141.148438 320.507812 L 125.90625 384.171875 C 19.828125 418.9375 -94.359375 361.125 -129.132812 255.039062 C -163.898438 148.953125 -106.085938 34.765625 0 0 L 17.703125 -61.78125 Z M 141.148438 320.507812 " transform="matrix(0.5,0,0,0.5,-15,-22.5)"/>
<path style="fill-rule:nonzero;fill:rgb(14.901961%,19.607843%,21.960784%);fill-opacity:1;stroke-width:1;stroke-linecap:round;stroke-linejoin:round;stroke:rgb(14.901961%,19.607843%,21.960784%);stroke-opacity:1;stroke-miterlimit:4;" d="M 168.828125 319.71875 L 159.132812 384.453125 C 52.96875 428.390625 -68.71875 377.953125 -112.65625 271.789062 C -156.601562 165.625 -106.164062 43.945312 0 0 L 12.3125 -63.078125 Z M 203.171875 320 L 212.289062 384.820312 C 106.023438 443.445312 -27.640625 404.820312 -86.265625 298.554688 C -144.890625 192.289062 -106.265625 58.625 0 0 L 208 318.90625 Z M 203.171875 320 " transform="matrix(0.5,0,0,0.5,-15,-22.5)"/>
<path style="fill-rule:nonzero;fill:rgb(38.431373%,40%,91.764706%);fill-opacity:1;stroke-width:1;stroke-linecap:round;stroke-linejoin:round;stroke:rgb(14.901961%,19.607843%,21.960784%);stroke-opacity:1;stroke-miterlimit:4;" d="M 126.71875 252.726562 L 137.820312 324.898438 L 216.757812 324.898438 C 216.757812 324.898438 217.929688 304.101562 214.453125 296.75 C 210.96875 289.398438 168 305.15625 166.453125 304.75 C 165.296875 304.460938 167 267.203125 169.109375 252.640625 C 99.34375 254.921875 40.945312 200.210938 38.664062 130.445312 C 36.390625 60.679688 91.09375 2.28125 160.859375 0 L 132.757812 0 C 135.257812 -1.765625 138.601562 -1.765625 141.101562 0 Z M 126.71875 252.726562 " transform="matrix(0.5,0,0,0.5,-15,-22.5)"/>
<path style="fill-rule:nonzero;fill:rgb(14.901961%,19.607843%,21.960784%);fill-opacity:1;stroke-width:1;stroke-linecap:round;stroke-linejoin:round;stroke:rgb(14.901961%,19.607843%,21.960784%);stroke-opacity:1;stroke-miterlimit:4;" d="M 214.453125 296.75 C 210.96875 289.398438 168 305.15625 166.453125 304.75 C 165.296875 304.460938 167 267.203125 169.109375 252.640625 C 99.34375 252.617188 42.804688 196.046875 42.828125 126.28125 C 42.84375 56.523438 99.414062 -0.015625 169.179688 0 L 180.28125 72.171875 L 230.59375 72.171875 C 230.59375 72.171875 231.757812 51.390625 228.28125 44.039062 Z M 214.453125 296.75 " transform="matrix(0.5,0,0,0.5,-15,-22.5)"/>
<path style="fill-rule:nonzero;fill:rgb(100%,100%,100%);fill-opacity:1;stroke-width:1;stroke-linecap:round;stroke-linejoin:round;stroke:rgb(14.901961%,19.607843%,21.960784%);stroke-opacity:1;stroke-miterlimit:4;" d="M 254.390625 237.476562 C 254.390625 237.476562 253.117188 238.75 251.210938 240.976562 M 254.1875 240.0625 C 254.1875 240.0625 252.640625 243.210938 251.6875 244.640625 " transform="matrix(0.5,0,0,0.5,-15,-22.5)"/>
<path style=" stroke:none;fill-rule:nonzero;fill:rgb(14.901961%,19.607843%,21.960784%);fill-opacity:1;" d="M 5.179688 115.769531 C 6.011719 116.128906 8.035156 116.085938 8.039062 116.085938 C 8.046875 116.085938 7.605469 114.761719 7.566406 114.679688 C 7.121094 113.746094 5.710938 112.210938 4.566406 112.363281 C -32.675781 111.890625 -62.484375 81.316406 -62.011719 44.074219 C -61.535156 6.832031 -30.960938 -22.972656 6.28125 -22.5 C 6.46875 -21.710938 7.28125 -21.121094 7.988281 -20.808594 Z M 5.179688 115.769531 "/>
<path style=" stroke:none;fill-rule:nonzero;fill:rgb(14.901961%,19.607843%,21.960784%);fill-opacity:1;" d="M 31.753906 108.863281 C 30.605469 108.738281 29.253906 110.316406 28.820312 111.261719 C 28.785156 111.339844 28.363281 112.679688 28.386719 112.679688 C 28.164062 112.925781 27.933594 113.179688 27.691406 113.488281 C 27.238281 114.039062 26.738281 114.671875 26.234375 115.390625 C 29.285156 120.976562 30.140625 127.5 28.636719 133.683594 L 28.730469 133.78125 L 28.730469 132.425781 C 28.59375 131.398438 27.730469 129.5 26.601562 129.289062 C 27.839844 128.941406 29.128906 129.664062 29.476562 130.902344 C 29.828125 132.140625 29.105469 133.429688 27.863281 133.78125 C 27.796875 134.59375 28.363281 135.410156 28.960938 135.921875 C 29.609375 136.5 31.410156 137.058594 31.554688 137.105469 C 32.5 135.894531 33.566406 134.78125 34.730469 133.78125 C 34.613281 134.398438 34.523438 135.023438 34.441406 135.65625 L 34.441406 135.066406 C 34.308594 134.039062 33.441406 132.140625 32.316406 131.929688 C 32.765625 131.929688 33.1875 132.148438 33.441406 132.519531 C 33.699219 132.886719 33.757812 133.359375 33.601562 133.78125 C 33.535156 134.59375 34.101562 135.410156 34.699219 135.925781 C 35.300781 136.441406 36.804688 136.953125 37.199219 137.078125 C 37.171875 137.324219 37.136719 137.578125 37.105469 137.804688 C 36.96875 138.964844 36.835938 140.125 36.671875 141.253906 C 36.609375 141.65625 36.539062 142.046875 36.46875 142.433594 L 36.46875 141.933594 C 36.335938 140.910156 35.46875 139.011719 34.339844 138.800781 C 32.953125 138.445312 32.117188 137.03125 32.476562 135.644531 C 32.832031 134.257812 34.242188 133.421875 35.628906 133.78125 C 35.566406 134.589844 36.128906 135.40625 36.730469 135.921875 C 36.140625 106.457031 59.542969 82.097656 89.003906 81.503906 C 118.464844 80.914062 142.828125 104.320312 143.421875 133.78125 C 143.335938 134.179688 143.25 134.574219 143.148438 134.960938 C 143.074219 135.21875 143.023438 135.460938 142.933594 135.730469 C 142.84375 136 142.769531 136.230469 142.691406 136.488281 C 142.515625 136.964844 142.339844 137.460938 142.160156 137.921875 C 142.035156 138.246094 141.910156 138.550781 141.789062 138.855469 C 141.851562 138.460938 141.953125 137.679688 141.960938 137.613281 C 141.226562 138.246094 140.332031 138.667969 139.375 138.828125 L 140.738281 138.828125 C 139.621094 139.125 138.914062 141.085938 138.859375 142.113281 C 138.859375 142.175781 138.898438 142.839844 138.929688 143.261719 C 138.875 143.015625 138.820312 142.761719 138.761719 142.53125 C 138.644531 142.03125 138.511719 141.53125 138.375 141.03125 C 138.296875 140.773438 138.21875 140.53125 138.140625 140.265625 C 138.058594 140 137.960938 139.765625 137.871094 139.484375 C 137.648438 138.878906 137.398438 138.28125 137.128906 137.679688 C 137.558594 137.574219 139.089844 137.179688 139.703125 136.714844 C 140.320312 136.25 140.964844 135.476562 140.960938 134.660156 C 142.113281 135.046875 142.730469 136.292969 142.34375 137.445312 C 141.957031 138.597656 140.710938 139.214844 139.558594 138.828125 C 138.410156 138.953125 137.410156 140.785156 137.203125 141.796875 C 137.203125 141.859375 137.121094 142.601562 137.089844 143.011719 C 136.929688 142.648438 136.765625 142.289062 136.589844 141.929688 C 136.089844 140.898438 135.519531 139.863281 134.976562 138.835938 L 134.476562 137.886719 C 134.628906 137.851562 136.476562 137.429688 137.144531 136.886719 C 137.816406 136.339844 138.40625 135.648438 138.398438 134.828125 C 139.503906 135.214844 140.085938 136.425781 139.699219 137.53125 C 139.3125 138.632812 138.105469 139.214844 137 138.828125 C 135.851562 138.953125 134.855469 140.785156 134.644531 141.796875 C 134.644531 141.875 134.53125 142.941406 134.519531 143.214844 C 134.160156 142.519531 133.804688 141.820312 133.484375 141.121094 C 143.03125 149.886719 143.945312 164.628906 135.550781 174.503906 C 127.160156 184.378906 112.460938 185.859375 102.269531 177.851562 C 92.078125 169.847656 90.035156 155.21875 97.644531 144.726562 C 105.253906 134.234375 119.792969 131.628906 130.570312 138.828125 C 130.640625 138.828125 132.570312 138.378906 133.261719 137.828125 C 133.871094 137.359375 134.519531 136.589844 134.511719 135.773438 C 135.355469 136.160156 135.722656 137.160156 135.335938 138.003906 C 134.949219 138.847656 133.953125 139.214844 133.109375 138.828125 C 131.960938 138.953125 130.964844 140.785156 130.753906 141.796875 C 130.753906 141.875 130.636719 143.023438 130.628906 143.234375 C 130.628906 143.175781 130.589844 143.121094 130.570312 143.058594 C 136.257812 138.445312 144.183594 137.75 150.585938 141.304688 C 156.992188 144.859375 160.597656 151.949219 159.691406 159.21875 C 158.785156 166.488281 153.550781 172.480469 146.46875 174.351562 C 139.386719 176.226562 131.878906 173.609375 127.496094 167.738281 C 127.859375 167.695312 129.496094 167.476562 130.210938 167.058594 C 130.925781 166.644531 131.601562 165.964844 131.710938 165.15625 C 132.421875 165.585938 132.65625 166.511719 132.226562 167.226562 C 131.796875 167.9375 130.867188 168.167969 130.15625 167.738281 C 128.996094 167.738281 127.804688 169.449219 127.484375 170.429688 C 127.484375 170.484375 127.355469 171.046875 127.273438 171.453125 L 127.273438 170.730469 C 127.273438 169.855469 127.328125 169.054688 127.386719 168.351562 C 127.421875 167.945312 127.460938 167.578125 127.5 167.238281 C 127.835938 167.011719 129.171875 166.070312 129.578125 165.394531 C 129.988281 164.71875 130.308594 163.785156 130.011719 163.023438 C 131.3125 163.238281 132.195312 164.464844 131.984375 165.765625 C 131.769531 167.070312 130.542969 167.953125 129.238281 167.738281 C 128.210938 168.269531 127.941406 170.335938 128.109375 171.355469 C 128.109375 171.441406 128.515625 172.789062 128.53125 172.78125 C 128.484375 173.105469 128.441406 173.453125 128.398438 173.839844 C 128.328125 174.550781 128.261719 175.339844 128.234375 176.230469 C 125.382812 165.3125 130.203125 153.835938 139.996094 148.226562 C 149.785156 142.613281 162.121094 144.257812 170.101562 152.238281 C 178.082031 160.21875 179.726562 172.554688 174.117188 182.34375 C 168.503906 192.136719 157.027344 196.957031 146.109375 194.105469 L 146.109375 199.105469 C 145.929688 198.820312 145.394531 198.039062 145.34375 197.984375 C 144.671875 197.203125 142.90625 196.089844 141.84375 196.546875 C 142.550781 196.007812 143.558594 196.148438 144.09375 196.855469 C 144.628906 197.5625 144.492188 198.570312 143.785156 199.105469 C 144.179688 199.820312 145.121094 200.175781 145.886719 200.285156 C 146.746094 200.410156 148.554688 199.886719 148.699219 199.84375 C 148.496094 183.652344 161.457031 170.355469 177.652344 170.152344 C 193.847656 169.949219 207.140625 182.910156 207.34375 199.105469 C 207.59375 199.679688 207.84375 200.253906 208.140625 200.824219 C 207.976562 200.578125 207.824219 200.363281 207.804688 200.324219 C 207.128906 199.546875 205.363281 198.429688 204.304688 198.886719 C 204.589844 198.640625 204.964844 198.527344 205.339844 198.570312 C 205.714844 198.609375 206.054688 198.804688 206.28125 199.105469 C 206.671875 199.820312 207.613281 200.175781 208.375 200.285156 C 209.136719 200.394531 210.699219 199.984375 211.109375 199.863281 C 211.21875 200.085938 211.324219 200.304688 211.433594 200.519531 C 211.933594 201.566406 212.488281 202.605469 212.976562 203.640625 C 213.144531 204.003906 213.300781 204.371094 213.476562 204.734375 L 213.179688 204.316406 C 212.503906 203.535156 210.738281 202.425781 209.679688 202.875 C 208.640625 202.339844 208.230469 201.058594 208.765625 200.015625 C 209.304688 198.976562 210.582031 198.566406 211.625 199.105469 C 212.019531 199.820312 212.960938 200.175781 213.71875 200.285156 C 217.386719 202.511719 218.925781 207.046875 217.371094 211.046875 C 215.816406 215.042969 211.617188 217.347656 207.410156 216.511719 C 203.203125 215.675781 200.203125 211.9375 200.292969 207.652344 C 200.386719 203.363281 203.546875 199.757812 207.785156 199.105469 C 207.933594 199.484375 208.085938 199.863281 208.210938 200.234375 C 208.296875 200.496094 208.390625 200.734375 208.453125 201 C 208.519531 201.265625 208.601562 201.5 208.671875 201.769531 C 208.789062 202.269531 208.914062 202.769531 209.019531 203.269531 C 209.09375 203.605469 209.160156 203.929688 209.226562 204.269531 C 209.054688 203.90625 208.726562 203.195312 208.679688 203.140625 C 208.128906 202.265625 206.554688 200.898438 205.433594 201.183594 C 204.859375 200.679688 204.804688 199.804688 205.308594 199.230469 C 205.816406 198.65625 206.691406 198.601562 207.265625 199.105469 C 207.546875 199.871094 208.421875 200.363281 209.15625 200.605469 C 209.96875 200.851562 211.765625 200.605469 211.988281 200.605469 C 212.101562 201.140625 212.195312 201.664062 212.285156 202.160156 C 212.585938 203.875 212.785156 205.320312 212.890625 206.324219 C 212.890625 206.503906 212.929688 206.664062 212.945312 206.824219 L 209.445312 206.824219 L 210.714844 231.609375 L 216.644531 231.609375 L 217.914062 206.824219 L 214.671875 206.824219 L 214.746094 206.679688 C 215.191406 205.75 215.804688 204.421875 216.46875 202.789062 C 216.683594 202.289062 216.898438 201.726562 217.113281 201.15625 C 217.335938 201.199219 219.113281 201.558594 219.941406 201.371094 C 220.695312 201.199219 221.605469 200.773438 221.941406 200.035156 C 221.570312 200.203125 221.140625 200.195312 220.777344 200.015625 C 220.410156 199.835938 220.144531 199.5 220.050781 199.105469 C 218.953125 198.734375 217.285156 199.980469 216.671875 200.808594 C 216.636719 200.859375 216.300781 201.433594 216.09375 201.808594 L 216.359375 201.109375 C 216.535156 200.636719 216.695312 200.148438 216.859375 199.636719 L 217.085938 198.871094 C 217.171875 198.613281 217.226562 198.339844 217.296875 198.070312 C 217.441406 197.445312 217.558594 196.804688 217.671875 196.15625 C 218.085938 196.304688 219.578125 196.824219 220.351562 196.769531 C 221.121094 196.714844 222.085938 196.433594 222.53125 195.769531 C 223.449219 196.324219 223.75 197.515625 223.199219 198.4375 C 222.644531 199.359375 221.449219 199.65625 220.53125 199.105469 C 219.53125 198.605469 217.660156 199.554688 216.929688 200.28125 C 216.886719 200.328125 216.429688 200.910156 216.171875 201.234375 C 216.230469 200.84375 216.289062 200.453125 216.339844 200.054688 C 216.484375 198.910156 216.589844 197.746094 216.703125 196.585938 C 216.738281 196.230469 216.78125 195.875 216.816406 195.519531 C 216.964844 195.574219 218.726562 196.230469 219.589844 196.171875 C 220.355469 196.113281 221.320312 195.835938 221.765625 195.171875 C 222.851562 195.722656 223.285156 197.050781 222.734375 198.136719 C 222.179688 199.222656 220.851562 199.65625 219.765625 199.105469 C 218.765625 198.578125 216.898438 199.554688 216.164062 200.28125 C 216.109375 200.335938 215.441406 201.175781 215.28125 201.394531 C 215.363281 200.613281 215.453125 199.839844 215.574219 199.074219 C 227.488281 201.351562 235.71875 212.308594 234.59375 224.382812 C 233.472656 236.457031 223.359375 245.707031 211.230469 245.746094 C 199.101562 245.785156 188.929688 236.605469 187.722656 224.539062 C 186.519531 212.472656 194.679688 201.460938 206.574219 199.105469 C 206.644531 199.105469 208.476562 199.820312 209.363281 199.761719 C 210.128906 199.703125 211.09375 199.421875 211.539062 198.761719 C 211.332031 199.085938 211 199.3125 210.617188 199.378906 C 210.234375 199.445312 209.84375 199.34375 209.539062 199.105469 C 208.539062 198.574219 206.675781 199.550781 205.941406 200.28125 C 205.886719 200.335938 205.164062 201.238281 205.046875 201.410156 L 205.089844 201.234375 C 196.390625 204.761719 186.445312 200.914062 182.386719 192.449219 C 178.328125 183.980469 181.558594 173.820312 189.757812 169.246094 C 197.957031 164.675781 208.300781 167.269531 213.367188 175.171875 C 218.4375 183.074219 216.484375 193.558594 208.910156 199.105469 C 209.175781 198.605469 209.453125 198.105469 209.734375 197.65625 C 210.066406 197.820312 211.574219 198.554688 212.375 198.585938 C 213.175781 198.613281 214.136719 198.441406 214.65625 197.808594 C 214.6875 198.304688 214.449219 198.773438 214.035156 199.042969 C 213.621094 199.3125 213.09375 199.335938 212.65625 199.105469 C 211.691406 198.464844 209.753906 199.230469 208.949219 199.875 C 208.90625 199.910156 208.496094 200.316406 208.203125 200.613281 C 208.335938 200.410156 208.464844 200.195312 208.59375 200.003906 C 209.09375 199.273438 209.566406 198.640625 210.003906 198.074219 C 210.253906 197.761719 210.503906 197.480469 210.710938 197.21875 C 211.113281 197.21875 212.75 197.160156 213.464844 196.824219 C 214.179688 196.488281 214.964844 195.886719 215.128906 195.089844 C 216.238281 195.589844 216.730469 196.894531 216.230469 198.003906 C 215.730469 199.113281 214.421875 199.605469 213.316406 199.105469 Z M 19.03125 139.738281 C 18.335938 141.339844 17.695312 142.644531 17.238281 143.550781 L 16.984375 144.050781 L 16.910156 144.050781 C 16.910156 143.875 16.859375 143.679688 16.828125 143.464844 C 16.691406 142.464844 16.46875 140.996094 16.125 139.269531 C 16.019531 138.726562 15.894531 138.144531 15.761719 137.550781 C 13.632812 130.8125 16.382812 123.496094 22.421875 119.828125 C 28.460938 116.160156 36.222656 117.097656 41.21875 122.09375 C 46.214844 127.085938 47.148438 134.851562 43.480469 140.886719 C 39.816406 146.925781 32.496094 149.679688 25.761719 147.550781 C 25.554688 148.035156 25.34375 148.523438 25.144531 148.984375 Z M 19.03125 139.738281 "/>
<path style=" stroke:none;fill-rule:nonzero;fill:rgb(14.901961%,19.607843%,21.960784%);fill-opacity:1;" d="M 25.699219 116.214844 C 25.699219 116.214844 26.070312 114.871094 26.078125 114.78125 C 26.226562 113.753906 25.898438 111.699219 24.855469 111.195312 C -12.0625 85.28125 -20.984375 34.347656 4.925781 -2.574219 C 30.839844 -39.492188 81.777344 -48.414062 118.695312 -22.5 C 118.414062 -21.734375 118.769531 -20.796875 119.195312 -20.144531 C 119.695312 -19.363281 121.394531 -18.285156 121.394531 -18.285156 Z M 25.699219 116.214844 "/>
<path style=" stroke:none;fill-rule:nonzero;fill:rgb(14.901961%,19.607843%,21.960784%);fill-opacity:1;" d="M 10.589844 168.789062 L 213.964844 168.789062 L 213.964844 171.28125 L 10.589844 171.28125 Z M 10.589844 168.789062 "/>
</g>
</svg>
