<?xml version="1.0" encoding="UTF-8"?>
<svg xmlns="http://www.w3.org/2000/svg" xmlns:xlink="http://www.w3.org/1999/xlink" width="px" height="px" viewBox="0 0 250 185" version="1.1">
<defs>
<filter id="alpha" filterUnits="objectBoundingBox" x="0%" y="0%" width="100%" height="100%">
  <feColorMatrix type="matrix" in="SourceGraphic" values="0 0 0 0 1 0 0 0 0 1 0 0 0 0 1 0 0 0 1 0"/>
</filter>
<mask id="mask0">
  <g filter="url(#alpha)">
<rect x="0" y="0" width="250" height="185" style="fill:rgb(0%,0%,0%);fill-opacity:0.301961;stroke:none;"/>
  </g>
</mask>
<clipPath id="clip1">
  <rect x="0" y="0" width="250" height="185"/>
</clipPath>
<g id="surface5" clip-path="url(#clip1)">
<path style=" stroke:none;fill-rule:nonzero;fill:rgb(0%,0%,0%);fill-opacity:1;" d="M 64.785156 148.535156 C 15.484375 166.425781 -38.984375 140.960938 -56.875 91.660156 C -74.765625 42.359375 -49.300781 -12.109375 0 -30 C 1.570312 -29.53125 3.371094 -29.183594 4.765625 -30.046875 C 6.160156 -30.90625 6.375 -33.449219 4.816406 -33.960938 L 18.339844 -37.015625 C 16.503906 -42.296875 19.53125 -48.320312 24.105469 -51.515625 C 28.679688 -54.710938 33.878906 -55.640625 39.449219 -56.125 L 46.195312 -35.199219 L 23.648438 -4.449219 L 5.191406 -3.914062 Z M 64.785156 148.535156 "/>
</g>
<mask id="mask1">
  <g filter="url(#alpha)">
<rect x="0" y="0" width="250" height="185" style="fill:rgb(0%,0%,0%);fill-opacity:0.301961;stroke:none;"/>
  </g>
</mask>
<clipPath id="clip2">
  <rect x="0" y="0" width="250" height="185"/>
</clipPath>
<g id="surface8" clip-path="url(#clip2)">
<path style=" stroke:none;fill-rule:nonzero;fill:rgb(0%,0%,0%);fill-opacity:1;" d="M 99.824219 81.285156 C 104.464844 93.851562 112.824219 100.875 124.628906 107.175781 C 86.75 109.148438 54.441406 80.039062 52.46875 42.160156 C 50.496094 4.28125 79.605469 -28.027344 117.484375 -30 "/>
</g>
</defs>
<g id="surface1">
<path style=" stroke:none;fill-rule:nonzero;fill:rgb(96.078431%,96.078431%,96.078431%);fill-opacity:1;" d="M 198.914062 55.390625 C 211.53125 80.523438 207.539062 112.253906 191.769531 135.539062 C 176 158.824219 149.769531 173.90625 122.195312 179.394531 C 102.5 183.316406 81.324219 182.5 63.335938 173.609375 C 45.34375 164.71875 31.199219 146.773438 30.121094 126.730469 C 29.710938 119.160156 31.316406 111.121094 36.371094 105.464844 C 44.441406 96.433594 58.210938 96.121094 70.316406 96.464844 C 82.421875 96.808594 96.179688 96.554688 104.316406 87.566406 C 110.539062 80.65625 111.460938 70.628906 114.738281 61.929688 C 120.324219 47.125 133.789062 35.570312 149.265625 32.300781 C 132.0625 56.316406 98.648438 61.835938 74.632812 44.632812 C 50.617188 27.429688 45.097656 -5.984375 62.300781 -30 C 79.300781 -31.066406 95.464844 -22.304688 104.394531 -7.773438 Z M 198.914062 55.390625 "/>
<path style=" stroke:none;fill-rule:nonzero;fill:rgb(14.901961%,19.607843%,21.960784%);fill-opacity:1;" d="M 181.398438 172.824219 L 181.953125 173.023438 C 182.316406 173.164062 182.863281 173.351562 183.59375 173.554688 C 187.628906 166.445312 195.691406 162.636719 203.742188 164.035156 C 211.792969 165.433594 218.101562 171.742188 219.5 179.792969 C 220.898438 187.84375 217.089844 195.90625 209.980469 199.941406 L 209.980469 205.304688 C 236.171875 193.742188 255.535156 186.65625 253.226562 189.476562 C 250.917969 192.296875 227.8125 203.957031 201.621094 215.519531 L 206.839844 215.519531 C 207.226562 215.972656 207.839844 216.113281 208.378906 215.878906 C 208.921875 215.640625 209.277344 215.074219 209.277344 214.457031 C 209.277344 213.835938 208.921875 213.289062 208.378906 213.082031 C 207.839844 212.875 207.226562 213.046875 206.839844 213.519531 C 210.164062 201.558594 211.894531 192.015625 210.710938 192.210938 C 209.523438 192.402344 205.867188 202.257812 202.546875 214.21875 C 202.175781 205.828125 208.371094 198.585938 216.71875 197.648438 C 225.066406 196.710938 232.714844 202.402344 234.214844 210.667969 C 235.710938 218.933594 230.550781 226.949219 222.40625 229.003906 C 214.261719 231.058594 205.917969 226.453125 203.316406 218.464844 L 205.816406 220.964844 L 208.746094 220.964844 C 208.335938 225.429688 209.550781 228.695312 211.460938 228.261719 C 213.367188 227.832031 215.246094 223.863281 215.65625 219.398438 C 224.367188 210.6875 238.488281 210.6875 247.199219 219.398438 C 255.910156 228.109375 255.910156 242.234375 247.199219 250.945312 L 247.199219 252.875 C 246.714844 254.65625 245.707031 255.648438 244.886719 255.160156 L 247.691406 257.964844 L 253.554688 257.964844 L 253.554688 258.464844 C 257.882812 258.9375 261.5 258.847656 261.640625 258.261719 C 261.777344 257.675781 258.382812 256.820312 254.054688 256.34375 C 255.15625 256.71875 255.722656 257.835938 255.324219 258.839844 C 254.925781 259.84375 253.710938 260.351562 252.609375 259.976562 C 253.390625 259.476562 254.160156 258.929688 254.90625 258.359375 C 240.144531 249.898438 233.109375 232.425781 237.882812 216.097656 C 242.65625 199.769531 257.996094 188.839844 274.988281 189.660156 C 291.980469 190.480469 306.195312 202.835938 309.375 219.550781 C 312.554688 236.261719 303.863281 252.976562 288.359375 259.976562 C 289.660156 258.589844 290.980469 257.148438 291.796875 255.410156 C 291.195312 252.914062 292.324219 250.324219 294.566406 249.070312 C 296.804688 247.816406 299.601562 248.203125 301.417969 250.015625 C 303.230469 251.832031 303.617188 254.632812 302.363281 256.871094 C 301.109375 259.109375 298.519531 260.242188 296.023438 259.640625 L 301.644531 259.640625 C 299.011719 262.414062 297.710938 266.074219 295.550781 269.109375 C 293.746094 261.382812 298.140625 253.5625 305.679688 251.082031 C 313.214844 248.601562 321.394531 252.289062 324.53125 259.574219 C 327.667969 266.859375 324.722656 275.335938 317.742188 279.105469 C 310.761719 282.875 302.058594 280.691406 297.683594 274.070312 L 299.140625 275.523438 L 300.941406 275.523438 C 301.863281 275.574219 302.609375 276.730469 302.609375 278.113281 C 302.609375 279.492188 301.863281 280.574219 300.941406 280.523438 C 300.957031 280.0625 300.941406 279.621094 300.890625 279.226562 C 301.191406 279.796875 301.242188 280.464844 301.035156 281.074219 C 300.832031 281.6875 300.382812 282.1875 299.800781 282.460938 L 303.460938 286.121094 L 309.261719 286.121094 C 309.15625 286.960938 309.125 287.800781 309.09375 288.621094 C 309.066406 289.441406 309.039062 290.296875 309.015625 291.121094 C 308.957031 292.785156 308.902344 294.421875 308.851562 296.03125 C 308.820312 296.835938 308.804688 297.628906 308.765625 298.433594 C 306.96875 294.910156 308.09375 290.59375 311.386719 288.398438 C 314.679688 286.203125 319.097656 286.816406 321.664062 289.832031 C 324.226562 292.847656 324.132812 297.304688 321.4375 300.203125 C 318.742188 303.105469 314.304688 303.527344 311.109375 301.191406 L 314.503906 304.585938 L 323.699219 304.585938 C 323.726562 303.085938 324.003906 302.777344 324.324219 303.890625 C 324.644531 305 324.898438 307.132812 324.898438 308.726562 C 324.898438 310.320312 324.644531 310.804688 324.324219 309.828125 C 324.003906 308.851562 323.726562 306.761719 323.699219 305.085938 C 323.945312 305.652344 324.640625 305.75 325.351562 305.316406 C 326.058594 304.882812 326.578125 304.042969 326.578125 303.324219 C 326.578125 302.605469 326.058594 302.21875 325.351562 302.40625 C 324.640625 302.59375 323.945312 303.304688 323.699219 304.085938 C 323.394531 303.277344 322.828125 302.800781 322.199219 302.816406 C 322.75 303.308594 323.074219 304.007812 323.101562 304.746094 C 323.125 305.484375 322.847656 306.203125 322.335938 306.734375 L 326.835938 311.234375 L 354.023438 311.234375 C 353.941406 312.453125 353.898438 313.648438 353.886719 314.804688 C 348.429688 294.816406 357.105469 273.65625 375.027344 263.253906 C 392.949219 252.851562 415.625 255.808594 430.277344 270.460938 C 444.929688 285.113281 447.890625 307.792969 437.488281 325.710938 C 427.085938 343.632812 405.925781 352.3125 385.933594 346.855469 C 386.164062 347.699219 386.503906 348.46875 386.78125 349.21875 C 386.933594 349.585938 387.105469 349.933594 387.28125 350.28125 C 387.453125 350.625 387.585938 350.964844 387.78125 351.28125 C 382.28125 342.191406 384.433594 330.433594 392.792969 323.878906 C 401.152344 317.328125 413.085938 318.050781 420.597656 325.558594 C 428.105469 333.070312 428.828125 345.003906 422.273438 353.363281 C 415.722656 361.722656 403.960938 363.875 394.875 358.375 L 395.429688 358.84375 L 395.871094 359.230469 L 395.410156 358.863281 L 394.851562 358.40625 C 400.609375 358.589844 405.132812 363.40625 404.949219 369.167969 C 404.765625 374.929688 399.945312 379.449219 394.183594 379.265625 L 405.03125 390.109375 C 404.871094 389.765625 404.691406 389.414062 404.53125 389.046875 C 404.25 388.296875 403.90625 387.546875 403.671875 386.679688 C 413.816406 378.683594 427.792969 377.609375 439.042969 383.964844 C 450.292969 390.320312 456.589844 402.84375 454.976562 415.660156 C 453.367188 428.480469 444.167969 439.058594 431.695312 442.433594 C 419.222656 445.804688 405.949219 441.308594 398.09375 431.050781 C 398.09375 429.890625 398.144531 428.695312 398.226562 427.46875 C 388.945312 415.703125 390.445312 398.742188 401.648438 388.785156 C 412.851562 378.832031 429.871094 379.332031 440.464844 389.929688 C 451.0625 400.527344 451.5625 417.546875 441.609375 428.746094 C 431.652344 439.949219 414.691406 441.449219 402.925781 432.171875 L 402.925781 438.765625 C 403.160156 439.679688 403.101562 440.933594 402.773438 441.953125 L 422.351562 441.953125 C 420.675781 440.6875 417.707031 439.546875 415.269531 439.230469 C 412.832031 438.914062 411.609375 439.511719 412.351562 440.65625 C 413.09375 441.800781 415.597656 443.171875 418.316406 443.925781 C 421.039062 444.679688 423.21875 444.605469 423.515625 443.75 C 421.207031 439.8125 422.183594 434.773438 425.792969 431.984375 C 429.402344 429.195312 434.523438 429.519531 437.753906 432.746094 C 440.980469 435.976562 441.304688 441.097656 438.515625 444.707031 C 435.726562 448.316406 430.6875 449.292969 426.75 446.984375 L 426.75 448.484375 C 427.300781 447.039062 427.179688 445.410156 427.25 443.804688 C 427.320312 442.199219 427.355469 440.554688 427.410156 438.898438 C 427.433594 438.070312 427.460938 437.234375 427.488281 436.398438 C 427.519531 435.566406 427.546875 434.703125 427.65625 433.855469 C 426.238281 429.648438 427.898438 425.023438 431.671875 422.683594 C 435.441406 420.34375 440.328125 420.90625 443.464844 424.042969 C 446.601562 427.183594 447.167969 432.066406 444.828125 435.839844 C 442.488281 439.609375 437.859375 441.273438 433.65625 439.855469 L 433.65625 447.300781 C 433.957031 447.070312 434.230469 447.214844 434.421875 447.703125 C 434.609375 448.191406 434.695312 448.980469 434.65625 449.890625 L 438.554688 449.890625 C 438.417969 449.488281 438.140625 449.453125 437.882812 449.796875 C 437.621094 450.140625 437.441406 450.78125 437.441406 451.363281 C 437.441406 451.945312 437.621094 452.324219 437.882812 452.285156 C 438.140625 452.25 438.417969 451.804688 438.554688 451.203125 C 438.425781 450.558594 438.734375 449.898438 439.316406 449.585938 C 439.898438 449.273438 440.617188 449.382812 441.085938 449.847656 C 441.554688 450.316406 441.660156 451.035156 441.347656 451.617188 C 441.035156 452.199219 440.378906 452.511719 439.730469 452.378906 L 439.730469 453.425781 C 513.761719 334.304688 573.308594 249.917969 572.730469 264.9375 C 572.148438 279.960938 511.664062 388.699219 437.628906 507.820312 L 460.398438 507.820312 C 467.234375 518.625 485.089844 526.738281 500.277344 525.941406 C 515.464844 525.144531 522.234375 515.738281 515.398438 504.933594 C 514.847656 502.386719 516.039062 499.777344 518.328125 498.527344 C 520.621094 497.277344 523.460938 497.6875 525.304688 499.53125 C 527.148438 501.375 527.558594 504.214844 526.308594 506.503906 C 525.058594 508.796875 522.449219 509.988281 519.898438 509.433594 L 519.898438 509.933594 C 519.058594 511.726562 517.726562 513.175781 516.398438 514.570312 C 502.65625 528.777344 480.148438 529.609375 465.394531 516.453125 C 450.636719 503.300781 448.890625 480.847656 461.433594 465.566406 C 473.976562 450.289062 496.339844 447.628906 512.117188 459.539062 C 527.894531 471.449219 531.464844 493.6875 520.203125 509.933594 C 519.453125 510.511719 518.679688 511.050781 517.894531 511.558594 C 518.296875 511.941406 518.597656 512.414062 518.773438 512.941406 L 521.589844 515.753906 L 521.589844 518.445312 C 523.011719 512.136719 524.335938 507.710938 524.542969 508.5625 C 524.75 509.417969 523.761719 515.222656 522.339844 521.53125 L 524.90625 521.53125 C 524.835938 522.140625 525.0625 522.695312 525.449219 522.871094 C 525.839844 523.046875 526.289062 522.800781 526.542969 522.277344 C 526.792969 521.75 526.78125 521.078125 526.511719 520.65625 C 526.242188 520.230469 525.785156 520.160156 525.40625 520.484375 C 524.625 521.523438 523.933594 522.132812 523.40625 522.25 C 523.65625 506.390625 535.539062 493.132812 551.277344 491.15625 C 567.015625 489.179688 581.808594 499.085938 585.972656 514.390625 C 590.136719 529.695312 582.40625 545.734375 567.835938 552.003906 C 553.265625 558.273438 536.300781 552.867188 528.050781 539.320312 L 532.273438 543.546875 L 534.980469 543.546875 L 534.980469 545.101562 C 536.789062 543.699219 538.269531 546.054688 538.285156 550.363281 C 538.300781 554.667969 536.847656 559.296875 535.035156 560.695312 L 543.195312 560.695312 C 542.46875 560.875 544.460938 561.554688 548.09375 562.371094 C 551.726562 563.1875 556.148438 563.945312 558.96875 564.234375 C 561.792969 564.527344 562.355469 564.28125 560.351562 563.636719 C 558.347656 562.988281 554.25 562.089844 550.269531 561.425781 C 551.046875 559.835938 552.765625 558.933594 554.515625 559.203125 C 556.265625 559.46875 557.636719 560.839844 557.902344 562.589844 C 558.171875 564.339844 557.269531 566.058594 555.679688 566.835938 L 555.679688 567.335938 C 560.144531 566.234375 563.875 562.875 564.015625 559.839844 C 564.152344 556.800781 560.644531 555.234375 556.179688 556.335938 C 554.285156 557.082031 552.476562 557.707031 550.785156 558.195312 C 554.972656 545.910156 567.324219 538.359375 580.164062 540.234375 C 593.007812 542.109375 602.683594 552.875 603.1875 565.84375 C 603.6875 578.8125 594.867188 590.292969 582.207031 593.148438 C 569.546875 596.007812 556.648438 589.429688 551.53125 577.503906 L 568.410156 594.386719 Z M 181.398438 172.824219 "/>
<path style=" stroke:none;fill-rule:nonzero;fill:rgb(14.901961%,19.607843%,21.960784%);fill-opacity:1;" d="M 184.195312 166.726562 C 157.941406 229.304688 92.410156 265.929688 25.351562 255.5 C -41.707031 245.066406 -93.019531 190.265625 -99.019531 122.667969 C -105.023438 55.070312 -64.171875 -7.917969 0 -30 C 0.640625 -31.351562 1.273438 -32.691406 1.90625 -34 C 2.535156 -35.308594 3.148438 -36.613281 3.839844 -37.855469 C 34.035156 -63.882812 79.410156 -61.375 106.550781 -32.175781 C 133.691406 -2.976562 132.886719 42.457031 104.722656 70.675781 C 76.558594 98.890625 31.125 99.785156 1.875 72.699219 C -27.375 45.613281 -29.972656 0.246094 -4 -30 C -2.5 -32.121094 -1 -34.078125 0.394531 -35.898438 C 1.789062 -37.71875 3.15625 -39.398438 4.449219 -40.859375 C 28.460938 -60.320312 63.460938 -57.789062 84.417969 -35.074219 C 105.378906 -12.359375 105.097656 22.726562 83.773438 45.101562 C 62.449219 67.476562 27.417969 69.445312 3.722656 49.597656 C -19.972656 29.753906 -24.183594 -5.082031 -5.898438 -30 C -5.058594 -30.699219 -4.398438 -31.226562 -3.933594 -31.570312 L -3.410156 -31.964844 C -2.867188 -32.472656 -2.015625 -32.445312 -1.507812 -31.902344 C -1 -31.359375 -1.027344 -30.507812 -1.570312 -30 L -1.734375 -29.851562 L -2.234375 -29.433594 C -2.679688 -29.070312 -3.335938 -28.535156 -4.164062 -27.820312 C -2.03125 -28.667969 0.148438 -29.394531 2.363281 -30 C 1.085938 -28.523438 -0.25 -26.851562 -1.636719 -25.03125 C -3.019531 -23.210938 -4.515625 -21.238281 -6 -19.121094 C -4.03125 -22.9375 -1.734375 -26.578125 0.859375 -30 C 0.175781 -28.769531 -0.441406 -27.476562 -1.066406 -26.160156 L -2.964844 -22.160156 C 2.070312 -25.074219 7.273438 -27.691406 12.613281 -30 "/>
<path style=" stroke:none;fill-rule:nonzero;fill:rgb(14.901961%,19.607843%,21.960784%);fill-opacity:1;" d="M 194.574219 143.238281 C 146.734375 143.4375 107.796875 104.8125 107.601562 56.976562 C 107.402344 9.136719 146.027344 -29.804688 193.863281 -30 C 193.796875 -30.453125 193.714844 -31.121094 193.636719 -31.945312 C 193.464844 -33.589844 193.308594 -35.863281 193.136719 -38.378906 C 192.960938 -40.894531 192.785156 -43.164062 192.59375 -44.800781 C 192.5 -45.621094 192.414062 -46.300781 192.351562 -46.738281 C 193.28125 -47.476562 194.574219 -47.550781 195.585938 -46.933594 C 196.597656 -46.3125 197.117188 -45.128906 196.886719 -43.964844 C 196.65625 -42.800781 195.726562 -41.902344 194.554688 -41.714844 C 193.382812 -41.527344 192.214844 -42.089844 191.636719 -43.125 C 191.730469 -42.671875 191.84375 -42.011719 191.96875 -41.195312 C 192.21875 -39.558594 192.441406 -37.28125 192.601562 -34.765625 C 192.761719 -32.25 192.894531 -30.039062 193 -28.324219 C 193.054688 -27.554688 193.101562 -26.898438 193.136719 -26.375 C 188.507812 25.957031 142.335938 64.628906 90.003906 60.003906 C 37.671875 55.378906 -1 9.207031 3.625 -43.125 Z M 194.574219 143.238281 "/>
<path style=" stroke:none;fill-rule:nonzero;fill:rgb(14.901961%,19.607843%,21.960784%);fill-opacity:1;" d="M 215.84375 140.109375 C 168.871094 140.09375 130.804688 101.996094 130.824219 55.023438 C 130.839844 8.046875 168.933594 -30.019531 215.910156 -30 C 215.363281 -29.96875 214.578125 -29.933594 213.605469 -29.859375 C 211.664062 -29.726562 208.988281 -29.449219 206.050781 -29.011719 C 203.445312 -28.621094 200.910156 -28.15625 198.550781 -27.628906 C 197.601562 -27.421875 196.835938 -27.234375 196.304688 -27.128906 C 197.140625 -29.226562 199.328125 -30.453125 201.554688 -30.078125 C 203.777344 -29.699219 205.4375 -27.820312 205.539062 -25.566406 C 205.640625 -23.3125 204.152344 -21.292969 201.96875 -20.71875 C 199.785156 -20.148438 197.5 -21.175781 196.480469 -23.191406 C 196.980469 -23.351562 197.761719 -23.570312 198.710938 -23.804688 C 200.601562 -24.304688 203.25 -24.835938 206.210938 -25.28125 C 206.789062 30.359375 162.148438 75.933594 106.511719 76.511719 C 50.871094 77.085938 5.296875 32.449219 4.71875 -23.191406 C 5.695312 -23.238281 6.484375 -23.238281 7.03125 -23.230469 C 9.164062 -23.484375 11.105469 -21.984375 11.398438 -19.855469 C 11.6875 -17.726562 10.21875 -15.761719 8.097656 -15.433594 C 5.972656 -15.105469 3.980469 -16.542969 3.621094 -18.660156 C 3.257812 -20.777344 4.660156 -22.792969 6.769531 -23.191406 Z M 184.46875 166.34375 C 132.132812 166.417969 89.644531 124.046875 89.574219 71.707031 C 89.5 19.367188 131.871094 -23.117188 184.210938 -23.191406 L 183.878906 -23.96875 C 183.59375 -24.644531 183.203125 -25.636719 182.746094 -26.863281 C 181.820312 -29.324219 180.648438 -32.761719 179.410156 -36.570312 C 178.171875 -40.378906 177.03125 -43.824219 176.15625 -46.296875 C 175.730469 -47.5 175.375 -48.488281 175.113281 -49.226562 C 175.003906 -49.546875 174.910156 -49.804688 174.835938 -50.023438 C 175.191406 -50.410156 175.765625 -50.5 176.222656 -50.238281 C 176.679688 -49.976562 176.894531 -49.4375 176.746094 -48.933594 C 176.597656 -48.433594 176.121094 -48.097656 175.597656 -48.128906 C 175.074219 -48.160156 174.640625 -48.546875 174.550781 -49.066406 L 174.886719 -48.289062 C 175.171875 -47.609375 175.554688 -46.621094 176.015625 -45.390625 C 176.941406 -42.933594 178.113281 -39.496094 179.355469 -35.683594 C 180.59375 -31.875 182.230469 -27.886719 183.105469 -25.410156 C 183.53125 -24.203125 183.386719 -23.769531 183.644531 -23.035156 C 183.761719 -22.714844 183.851562 -22.449219 183.925781 -22.234375 C 176.515625 26.410156 131.074219 59.839844 82.429688 52.429688 C 33.785156 45.019531 0.355469 -0.417969 7.765625 -49.066406 Z M 212.878906 158.390625 C 155.59375 158.359375 109.175781 111.898438 109.203125 54.609375 C 109.234375 -2.675781 155.699219 -49.09375 212.984375 -49.066406 L 212.160156 -48.824219 L 209.121094 -47.96875 C 206.550781 -47.246094 203.015625 -46.199219 199.121094 -45.046875 C 195.464844 -43.964844 192.066406 -42.984375 189.078125 -42.210938 C 187.789062 -41.871094 186.738281 -41.609375 186.011719 -41.445312 L 185.171875 -41.261719 C 185.410156 -41.683594 185.902344 -41.902344 186.375 -41.785156 C 186.851562 -41.671875 187.191406 -41.257812 187.210938 -40.769531 C 187.230469 -40.28125 186.921875 -39.839844 186.457031 -39.691406 C 185.996094 -39.539062 185.488281 -39.714844 185.214844 -40.121094 L 186.039062 -40.359375 L 189.078125 -41.214844 C 191.648438 -41.941406 195.183594 -42.984375 199.078125 -44.140625 C 202.976562 -45.296875 206.535156 -46.304688 209.121094 -46.976562 C 210.410156 -47.316406 211.460938 -47.574219 212.183594 -47.738281 L 213.023438 -47.925781 C 215.179688 15.800781 165.269531 69.203125 101.546875 71.359375 C 37.820312 73.515625 -15.585938 23.605469 -17.738281 -40.121094 Z M 212.878906 158.390625 "/>
<path style=" stroke:none;fill-rule:nonzero;fill:rgb(100%,74.509804%,61.568627%);fill-opacity:1;" d="M 130.390625 51.203125 C 130.390625 51.203125 130.101562 49.816406 129.613281 45.796875 L 125.195312 37.128906 C 125.195312 37.128906 126.195312 35.316406 128.449219 39.15625 C 129.488281 40.90625 132.949219 40.15625 132.390625 37.425781 C 131.828125 34.695312 128.25 33.425781 126.058594 36.144531 C 126.058594 36.144531 124.644531 36.289062 124.480469 35.183594 C 124.316406 34.078125 127.511719 31.351562 130.230469 32.144531 C 113.070312 50.105469 84.597656 50.757812 66.636719 33.59375 C 48.671875 16.433594 48.023438 -12.039062 65.183594 -30 C 65.183594 -30 64.59375 -39.109375 65.335938 -39.191406 C 66.074219 -39.269531 67.101562 -38.691406 67.660156 -28.726562 C 67.660156 -28.726562 67.96875 -36.609375 68.125 -37.613281 C 68.28125 -38.621094 69.625 -39.300781 69.804688 -36.773438 C 69.804688 -36.496094 70.304688 -28.746094 70.304688 -28.746094 C 70.304688 -28.746094 71.191406 -33.871094 71.304688 -34.28125 C 71.554688 -35.359375 72.621094 -35.246094 72.726562 -33.816406 C 72.800781 -32.730469 73.148438 -28.101562 73.148438 -28.101562 L 73.820312 -13.84375 L 73.910156 -13.84375 "/>
<path style=" stroke:none;fill-rule:nonzero;fill:rgb(38.431373%,40%,91.764706%);fill-opacity:1;" d="M 144.53125 46.5 L 127.929688 46.070312 L 126.28125 86.238281 L 107.5 78 L 107.46875 78.066406 C 106.339844 77.566406 105.355469 77.113281 104.828125 76.824219 C 94.453125 71.171875 87.644531 70.480469 76.511719 74.453125 L 55.179688 82.996094 C 51.050781 84.941406 40.304688 86.734375 36.621094 103.726562 L 36.121094 105.753906 L 53.191406 118 L 64.894531 148.851562 L 78.894531 179.730469 L 111.121094 178.683594 L 127.960938 157.683594 L 113.671875 130.390625 L 104.789062 99.820312 C 111.066406 103.984375 122.710938 109.65625 136.65625 106.699219 C 151.78125 103.5 144.53125 46.5 144.53125 46.5 Z M 144.53125 46.5 "/>
<use xlink:href="#surface5" mask="url(#mask0)"/>
<path style=" stroke:none;fill-rule:nonzero;fill:rgb(38.431373%,40%,91.764706%);fill-opacity:1;" d="M 57.710938 119.628906 C 57.710938 119.628906 49.253906 138.128906 51.210938 147.351562 C 52.289062 152.511719 69.175781 156.914062 79.933594 158.230469 L 76.710938 176.289062 C 76.710938 176.289062 36.710938 172.484375 29.234375 156.648438 C 24.984375 147.648438 29.289062 125.648438 37.386719 100.75 Z M 57.710938 119.628906 "/>
<path style=" stroke:none;fill-rule:nonzero;fill:rgb(100%,100%,100%);fill-opacity:1;" d="M 96.21875 141.296875 C 48.917969 141.253906 10.605469 102.871094 10.648438 55.570312 C 10.691406 8.269531 49.074219 -30.042969 96.375 -30 L 95.53125 -29.609375 C 94.796875 -29.269531 93.71875 -28.804688 92.386719 -28.246094 C 89.714844 -27.136719 85.976562 -25.703125 81.769531 -24.355469 C 77.566406 -23.003906 73.691406 -21.996094 70.871094 -21.355469 C 69.460938 -21.03125 68.316406 -20.785156 67.519531 -20.636719 L 66.605469 -20.464844 C 66.90625 -20.949219 67.488281 -21.179688 68.039062 -21.03125 C 68.59375 -20.882812 68.980469 -20.390625 69 -19.820312 C 69.015625 -19.25 68.660156 -18.738281 68.117188 -18.554688 C 67.578125 -18.371094 66.980469 -18.566406 66.648438 -19.03125 L 67.554688 -19.25 C 68.34375 -19.429688 69.480469 -19.703125 70.886719 -20.050781 C 73.691406 -20.746094 77.546875 -21.785156 81.746094 -23.128906 C 85.945312 -24.476562 89.683594 -25.875 92.371094 -26.945312 C 93.714844 -27.476562 94.796875 -27.914062 95.546875 -28.226562 L 96.40625 -28.574219 C 99.039062 -2.445312 79.992188 20.875 53.863281 23.511719 C 27.730469 26.148438 4.410156 7.101562 1.773438 -19.03125 Z M 107.355469 77.40625 C 107.355469 77.46875 91.621094 83.183594 72.160156 90.164062 C 52.699219 97.144531 36.894531 102.75 36.871094 102.664062 C 36.84375 102.578125 52.605469 96.886719 72.070312 89.90625 C 91.535156 82.925781 107.328125 77.335938 107.355469 77.40625 Z M 107.355469 77.40625 "/>
<path style=" stroke:none;fill-rule:nonzero;fill:rgb(14.901961%,19.607843%,21.960784%);fill-opacity:1;" d="M 53.601562 129 C 9.695312 143.800781 -37.898438 120.207031 -52.699219 76.300781 C -67.5 32.394531 -43.90625 -15.199219 0 -30 L 0.128906 -30.308594 L 0.628906 -31.503906 C 1.070312 -32.546875 1.695312 -34.058594 2.328125 -35.976562 C 18.234375 -44.121094 37.734375 -38.632812 47.050781 -23.382812 C 56.371094 -8.132812 52.359375 11.722656 37.851562 22.160156 C 23.34375 32.59375 3.246094 30.085938 -8.25 16.40625 C -19.746094 2.722656 -18.753906 -17.507812 -5.976562 -30 C -6.296875 -23.410156 -9.414062 -17.273438 -14.550781 -13.128906 L -0.0507812 1.371094 L 12.449219 1.371094 L 11.703125 1.464844 C 11.488281 1.496094 11.316406 1.539062 11.164062 1.566406 L 10.835938 1.628906 L 10.71875 1.628906 C 10.71875 1.628906 10.753906 1.628906 10.824219 1.59375 L 11.15625 1.503906 C 11.300781 1.46875 11.480469 1.414062 11.695312 1.375 L 12.441406 1.261719 C 13.742188 -4.621094 19.160156 -8.660156 25.167969 -8.222656 C 31.175781 -7.785156 35.953125 -3.007812 36.390625 3 C 36.828125 9.007812 32.792969 14.429688 26.910156 15.730469 L 26.910156 24.980469 C 46.421875 8.398438 64.183594 2.484375 66.574219 11.769531 C 68.96875 21.054688 55.09375 42.027344 35.578125 58.609375 L 84.914062 107.945312 C 84.675781 108.445312 84.484375 108.855469 84.351562 109.121094 L 84.195312 109.425781 C 84.179688 109.5 84.160156 109.546875 84.15625 109.546875 Z M 93.773438 73.238281 C 95.535156 71.476562 98.394531 71.476562 100.15625 73.238281 C 101.917969 75 101.917969 77.859375 100.15625 79.621094 L 100.15625 87.035156 C 138.746094 30.328125 170.992188 -3.03125 172.179688 12.527344 C 173.363281 28.085938 143.039062 86.667969 104.445312 143.375 L 107.230469 153.875 L 108.039062 157.070312 L 108.25 157.941406 C 108.3125 157.269531 108.882812 156.765625 109.554688 156.785156 C 110.222656 156.804688 110.765625 157.34375 110.785156 158.015625 C 110.804688 158.6875 110.296875 159.257812 109.628906 159.320312 C 109.566406 159.09375 109.480469 158.820312 109.375 158.460938 L 108.480469 155.289062 L 105.625 144.789062 C 105.074219 142.738281 104.570312 140.789062 103.914062 139.070312 C 103.914062 143.1875 102.398438 147.160156 99.65625 150.230469 C 99.023438 149.800781 98.636719 149.605469 98.648438 149.585938 Z M 93.773438 73.238281 "/>
<path style=" stroke:none;fill-rule:nonzero;fill:rgb(100%,100%,100%);fill-opacity:1;" d="M 121.425781 84 L 121.203125 84.105469 L 120.539062 84.394531 L 118 85.464844 C 115.78125 86.40625 112.554688 87.734375 108.566406 89.363281 C 100.566406 92.621094 89.515625 97.015625 77.210938 101.65625 C 64.90625 106.296875 53.710938 110.308594 45.546875 113.15625 C 41.476562 114.570312 38.175781 115.695312 35.890625 116.460938 L 33.253906 117.335938 L 32.570312 117.554688 L 32.328125 117.625 L 32.558594 117.53125 L 33.238281 117.285156 L 35.855469 116.363281 L 45.484375 112.980469 C 53.609375 110.109375 64.808594 106.070312 77.121094 101.429688 C 89.429688 96.789062 100.5 92.429688 108.496094 89.210938 L 117.960938 85.390625 L 120.535156 84.351562 L 121.210938 84.085938 Z M 106.785156 103.933594 L 106.59375 104.023438 L 106.023438 104.269531 L 103.820312 105.183594 C 101.90625 105.980469 99.125 107.09375 95.675781 108.449219 C 88.773438 111.15625 79.175781 114.75 68.488281 118.410156 C 57.804688 122.070312 47.988281 125.09375 40.894531 127.179688 C 37.339844 128.21875 34.453125 129.039062 32.453125 129.585938 L 30.15625 130.210938 L 29.554688 130.363281 C 29.828125 129.988281 30.3125 129.824219 30.757812 129.960938 C 31.203125 130.097656 31.511719 130.5 31.527344 130.964844 C 31.542969 131.433594 31.261719 131.855469 30.824219 132.023438 C 30.390625 132.1875 29.898438 132.058594 29.601562 131.699219 L 30.195312 131.519531 L 32.484375 130.859375 C 34.484375 130.285156 37.351562 129.433594 40.898438 128.359375 C 47.996094 126.234375 57.765625 123.179688 68.460938 119.523438 C 79.15625 115.871094 88.75 112.300781 95.664062 109.636719 C 99.121094 108.304688 101.910156 107.214844 103.835938 106.449219 L 106.058594 105.578125 L 106.640625 105.359375 Z M 145.875 86.625 C 158.320312 86.554688 168.46875 96.589844 168.539062 109.039062 C 168.605469 121.484375 158.570312 131.632812 146.125 131.699219 L 145.25 132.378906 C 144.871094 132.675781 144.398438 133.03125 143.84375 133.425781 C 143.289062 133.820312 142.664062 134.285156 141.949219 134.761719 C 140.535156 135.734375 138.808594 136.839844 136.855469 138 C 134.898438 139.160156 132.699219 140.355469 130.355469 141.5 C 128.011719 142.644531 125.699219 143.640625 123.589844 144.5 C 121.480469 145.359375 119.539062 146 117.898438 146.523438 C 117.085938 146.796875 116.335938 147.023438 115.679688 147.199219 C 115.023438 147.375 114.460938 147.550781 113.996094 147.664062 L 112.921875 147.941406 C 113.375 146.957031 114.449219 146.414062 115.511719 146.628906 C 116.574219 146.84375 117.351562 147.757812 117.390625 148.84375 C 117.429688 149.925781 116.71875 150.898438 115.671875 151.1875 C 114.628906 151.476562 113.519531 151.011719 112.996094 150.058594 L 114.054688 149.746094 C 114.515625 149.609375 115.054688 149.445312 115.730469 149.246094 C 116.40625 149.046875 117.121094 148.820312 117.929688 148.535156 C 119.558594 147.996094 121.480469 147.296875 123.589844 146.460938 C 125.699219 145.625 127.980469 144.613281 130.328125 143.460938 C 132.679688 142.304688 134.871094 141.113281 136.828125 139.960938 C 138.789062 138.804688 140.515625 137.726562 141.941406 136.769531 C 142.660156 136.304688 143.289062 135.855469 143.855469 135.46875 C 144.421875 135.085938 144.894531 134.746094 145.285156 134.46875 L 146.183594 133.828125 C 150.667969 128.503906 158.617188 127.820312 163.941406 132.300781 C 169.269531 136.785156 169.953125 144.734375 165.46875 150.058594 Z M 146.65625 73.285156 C 146.679688 73.355469 142.089844 75.199219 136.40625 77.410156 C 130.71875 79.621094 126.085938 81.355469 126.058594 81.285156 C 126.035156 81.214844 130.621094 79.375 136.308594 77.164062 C 142 74.953125 146.628906 73.21875 146.65625 73.285156 Z M 145.644531 60.84375 C 145.644531 60.914062 141.644531 62.121094 136.644531 63.535156 C 131.644531 64.949219 127.589844 66.035156 127.570312 65.96875 C 127.550781 65.90625 131.570312 64.699219 136.570312 63.285156 C 141.570312 61.871094 145.625 60.773438 145.644531 60.84375 Z M 144.765625 48.675781 C 144.765625 48.746094 140.878906 49.675781 136.054688 50.71875 C 131.230469 51.765625 127.308594 52.585938 127.296875 52.515625 C 127.28125 52.445312 131.175781 51.515625 136 50.46875 C 140.824219 49.425781 144.746094 48.605469 144.765625 48.675781 Z M 109.933594 117.699219 C 109.933594 117.765625 98.835938 122.199219 85.089844 127.628906 C 71.34375 133.058594 60.175781 137.390625 60.148438 137.324219 C 60.125 137.261719 71.246094 132.824219 84.996094 127.390625 C 98.746094 121.953125 109.910156 117.628906 109.933594 117.699219 Z M 51.113281 139.714844 C 53.972656 139.683594 56.3125 141.976562 56.34375 144.832031 C 56.371094 147.6875 54.082031 150.03125 51.226562 150.058594 L 50.554688 150.335938 C 49.96875 150.566406 49.121094 150.890625 48.054688 151.28125 C 45.945312 152.058594 43.011719 153.085938 39.738281 154.125 C 36.46875 155.164062 33.480469 156.03125 31.308594 156.625 C 30.226562 156.914062 29.339844 157.125 28.730469 157.296875 L 28.023438 157.460938 C 28.210938 157.140625 28.585938 156.984375 28.945312 157.074219 C 29.304688 157.164062 29.5625 157.476562 29.578125 157.847656 C 29.59375 158.21875 29.367188 158.554688 29.015625 158.671875 C 28.667969 158.792969 28.28125 158.671875 28.066406 158.371094 L 28.761719 158.15625 L 31.316406 157.40625 C 33.46875 156.773438 36.445312 155.90625 39.714844 154.84375 C 42.984375 153.785156 45.921875 152.804688 48.046875 152.070312 L 50.546875 151.203125 L 51.230469 150.976562 C 53.273438 114.078125 84.839844 85.824219 121.734375 87.863281 C 158.632812 89.90625 186.886719 121.472656 184.84375 158.371094 Z M 57.050781 152.386719 C 57.078125 152.449219 51.691406 154.699219 45.015625 157.410156 C 38.339844 160.121094 32.898438 162.265625 32.875 162.199219 C 32.851562 162.136719 38.234375 159.878906 44.914062 157.171875 C 51.59375 154.460938 57.023438 152.316406 57.050781 152.386719 Z M 66.863281 155.886719 C 66.921875 155.933594 63.894531 159.515625 60.113281 163.886719 C 56.335938 168.253906 53.21875 171.761719 53.164062 171.714844 C 53.109375 171.671875 56.136719 168.085938 59.914062 163.714844 C 63.695312 159.34375 66.808594 155.839844 66.863281 155.886719 Z M 76.898438 158.433594 C 76.96875 158.460938 75.753906 162.269531 74.191406 166.933594 C 72.625 171.601562 71.300781 175.390625 71.234375 175.363281 C 71.171875 175.339844 72.378906 171.535156 73.945312 166.863281 C 75.511719 162.195312 76.828125 158.410156 76.898438 158.433594 Z M 142.5 102.175781 C 142.53125 102.238281 139.65625 103.429688 136.078125 104.828125 C 132.503906 106.230469 129.578125 107.304688 129.578125 107.238281 C 129.578125 107.175781 132.429688 105.984375 136.003906 104.585938 C 139.578125 103.183594 142.46875 102.105469 142.5 102.175781 Z M 142.5 102.175781 "/>
<use xlink:href="#surface8" mask="url(#mask1)"/>
<path style=" stroke:none;fill-rule:nonzero;fill:rgb(27.058824%,35.294118%,39.215686%);fill-opacity:1;" d="M 95.621094 181.5 L 184.683594 181.5 L 184.683594 143.449219 C 136.789062 147.015625 95.070312 111.078125 91.503906 63.179688 C 87.941406 15.28125 123.878906 -26.433594 171.773438 -30 L 108.523438 -30 C 112.519531 -32.304688 117.441406 -32.304688 121.433594 -30 Z M 95.621094 181.5 "/>
<path style=" stroke:none;fill-rule:nonzero;fill:rgb(27.058824%,35.294118%,39.215686%);fill-opacity:1;" d="M 107.164062 130.539062 L 121.316406 130.539062 C 76.984375 164.039062 13.886719 155.257812 -19.613281 110.925781 C -53.113281 66.59375 -44.332031 3.5 0 -30 L 0 15.066406 C -12.445312 14.882812 -22.382812 4.644531 -22.199219 -7.800781 C -22.015625 -20.246094 -11.78125 -30.183594 0.664062 -30 L -28.925781 -30 C -28.664062 -29.847656 -28.539062 -29.542969 -28.613281 -29.253906 C -28.691406 -28.960938 -28.957031 -28.757812 -29.257812 -28.757812 C -29.558594 -28.757812 -29.820312 -28.960938 -29.898438 -29.253906 C -29.976562 -29.542969 -29.851562 -29.847656 -29.589844 -30 L -29.589844 -68.75 C -18.890625 -68.75 -10.214844 -60.074219 -10.214844 -49.375 C -10.214844 -38.675781 -18.890625 -30 -29.589844 -30 Z M 107.164062 130.539062 "/>
<path style=" stroke:none;fill-rule:nonzero;fill:rgb(14.901961%,19.607843%,21.960784%);fill-opacity:1;" d="M 102.191406 181.5 L 102.191406 143.394531 C 54.308594 171.613281 -7.382812 155.675781 -35.601562 107.792969 C -63.820312 59.910156 -47.882812 -1.78125 0 -30 L -9.160156 -30 C -9.160156 -30 -19.914062 -28.570312 -19.914062 -15.109375 C -19.914062 -1.648438 -19.570312 20.960938 -19.570312 20.960938 Z M 102.191406 181.5 "/>
<path style=" stroke:none;fill-rule:nonzero;fill:rgb(14.901961%,19.607843%,21.960784%);fill-opacity:1;" d="M 51.820312 177.878906 L 126.546875 177.878906 L 126.546875 182.121094 L 51.820312 182.121094 Z M 51.820312 177.878906 "/>
<path style=" stroke:none;fill-rule:nonzero;fill:rgb(27.058824%,35.294118%,39.215686%);fill-opacity:1;" d="M 126.546875 177.878906 L 187.59375 177.878906 L 187.59375 182.121094 L 126.546875 182.121094 Z M 126.546875 177.878906 "/>
<path style=" stroke:none;fill-rule:nonzero;fill:rgb(14.901961%,19.607843%,21.960784%);fill-opacity:1;" d="M 126.546875 180 C 68.554688 214.945312 -6.78125 196.261719 -41.726562 138.273438 C -76.671875 80.28125 -57.988281 4.945312 0 -30 L 0 -38.46875 C 0.0234375 -43.816406 0.0664062 -51.160156 0.109375 -59.28125 C 0.109375 -61.308594 0.175781 -63.28125 0.0507812 -65.199219 C -0.335938 -60.566406 -2.230469 -56.1875 -5.339844 -52.730469 L 3.34375 -44.046875 L 9.394531 -44.046875 L 8.953125 -43.984375 L 8.800781 -43.984375 L 8.949219 -44.019531 L 9.390625 -44.105469 C 10.578125 -45.890625 12.722656 -46.785156 14.828125 -46.371094 C 16.933594 -45.953125 18.578125 -44.308594 18.996094 -42.203125 C 19.410156 -40.097656 18.515625 -37.953125 16.730469 -36.765625 L 16.730469 19.316406 C 30.828125 -10.644531 43.839844 -30.082031 45.796875 -24.101562 C 47.75 -18.121094 37.90625 11.011719 23.808594 40.96875 C 23.933594 42.890625 23.894531 44.878906 23.875 46.910156 C 23.800781 55.023438 23.734375 62.375 23.683594 67.714844 C 23.648438 70.363281 23.621094 72.515625 23.601562 74.023438 C 23.601562 74.753906 23.570312 75.328125 23.566406 75.738281 L 23.566406 76.183594 C 13.839844 76.140625 5.992188 68.222656 6.039062 58.496094 C 6.082031 48.773438 14 40.925781 23.726562 40.96875 Z M 126.546875 180 "/>
<path style=" stroke:none;fill-rule:nonzero;fill:rgb(14.901961%,19.607843%,21.960784%);fill-opacity:1;" d="M 187.175781 177.773438 C 187.175781 177.84375 173.265625 177.929688 156.113281 177.960938 C 138.964844 177.988281 125.054688 177.960938 125.054688 177.878906 C 125.054688 177.800781 138.953125 177.726562 156.113281 177.695312 C 173.273438 177.664062 187.175781 177.703125 187.175781 177.773438 Z M 187.175781 182.289062 C 187.175781 182.359375 173.363281 182.378906 156.339844 182.335938 C 139.316406 182.289062 125.5 182.195312 125.503906 182.121094 C 125.511719 182.046875 139.304688 182.03125 156.339844 182.074219 C 173.375 182.121094 187.175781 182.214844 187.175781 182.289062 Z M 179.136719 173.039062 L 179.136719 170.335938 C 179.136719 168.578125 179.109375 166.023438 179.09375 162.796875 L 179.171875 162.875 L 139.203125 162.925781 C 139.261719 162.871094 139.070312 163.054688 139.328125 162.796875 L 139.328125 173.046875 L 139.199219 172.921875 L 167.699219 172.976562 L 176.105469 173.011719 L 179.171875 173.011719 C 123.109375 173.011719 77.664062 127.566406 77.664062 71.503906 C 77.664062 15.445312 123.109375 -30 179.171875 -30 L 176.355469 -30 L 167.980469 -29.964844 L 139.390625 -29.90625 L 139.265625 -29.90625 L 139.265625 -40.285156 C 139.523438 -40.546875 139.339844 -40.355469 139.398438 -40.414062 L 179.363281 -40.363281 L 179.445312 -40.363281 L 179.445312 -40.285156 C 179.445312 -37.035156 179.410156 -34.464844 179.398438 -32.695312 L 179.398438 -30.195312 C 179.078125 -30.578125 179.105469 -31.140625 179.460938 -31.492188 C 179.816406 -31.839844 180.378906 -31.859375 180.753906 -31.53125 C 181.132812 -31.207031 181.195312 -30.644531 180.898438 -30.242188 C 180.601562 -29.84375 180.046875 -29.734375 179.625 -30 Z M 179.136719 173.039062 "/>
<path style=" stroke:none;fill-rule:nonzero;fill:rgb(14.901961%,19.607843%,21.960784%);fill-opacity:1;" d="M 156.566406 165.425781 L 156.566406 170 L 156.101562 170 L 156.101562 166.351562 L 154.308594 169.421875 L 154.078125 169.421875 L 152.289062 166.371094 L 152.289062 170 L 151.828125 170 L 151.828125 165.441406 L 152.226562 165.441406 L 154.226562 168.820312 L 156.183594 165.441406 Z M 160.910156 168.765625 L 158.371094 168.765625 L 157.820312 169.984375 L 157.320312 169.984375 L 159.40625 165.425781 L 159.878906 165.425781 L 161.964844 169.984375 L 161.464844 169.984375 Z M 160.734375 168.375 L 159.640625 165.925781 L 158.546875 168.375 Z M 162.71875 165.425781 L 163.21875 165.425781 L 163.21875 170 L 162.71875 170 Z M 164.691406 165.425781 L 165.191406 165.425781 L 165.191406 169.566406 L 167.746094 169.566406 L 167.746094 170 L 164.710938 170 Z M 164.691406 165.425781 "/>
<path style=" stroke:none;fill-rule:nonzero;fill:rgb(38.431373%,40%,91.764706%);fill-opacity:1;" d="M 174 120.109375 L 174 112.609375 L 160 112.609375 L 160 142.679688 C 112.316406 186.863281 37.84375 184.023438 -6.339844 136.339844 C -50.523438 88.65625 -47.683594 14.183594 0 -30 L 0 -52.410156 Z M 174 120.109375 "/>
<path style=" stroke:none;fill-rule:nonzero;fill:rgb(14.901961%,19.607843%,21.960784%);fill-opacity:1;" d="M 165.460938 147.699219 C 165.460938 148.964844 164.433594 149.988281 163.171875 149.988281 C 161.90625 149.988281 160.878906 148.964844 160.878906 147.699219 C 160.878906 146.433594 161.90625 145.410156 163.171875 145.410156 C 164.433594 145.410156 165.460938 146.433594 165.460938 147.699219 Z M 165.460938 147.699219 "/>
<path style=" stroke:none;fill-rule:nonzero;fill:rgb(14.901961%,19.607843%,21.960784%);fill-opacity:1;" d="M 77.144531 74.640625 C 79.355469 72.429688 82.9375 72.429688 85.144531 74.640625 C 87.355469 76.847656 87.355469 80.429688 85.144531 82.640625 L 85.144531 83.480469 C 84.851562 85.015625 84.351562 86.734375 83.691406 88.480469 C 84.285156 83.824219 87.914062 80.132812 92.5625 79.464844 C 97.207031 78.792969 101.730469 81.308594 103.617188 85.609375 C 105.503906 89.90625 104.285156 94.9375 100.644531 97.902344 C 97.003906 100.867188 91.832031 101.039062 88.003906 98.320312 L 98.503906 108.820312 L 109.195312 108.820312 C 109.230469 107.804688 109.480469 107.398438 109.765625 107.894531 C 110.050781 108.390625 110.273438 109.617188 110.273438 110.695312 C 110.273438 111.769531 110.050781 112.328125 109.765625 111.964844 C 109.480469 111.601562 109.230469 110.441406 109.195312 109.320312 C 109.050781 109.574219 109 109.972656 109.0625 110.308594 C 109.125 110.644531 109.292969 110.84375 109.472656 110.804688 C 109.65625 110.761719 109.8125 110.488281 109.863281 110.125 C 109.914062 109.761719 109.84375 109.390625 109.695312 109.203125 C 109.726562 109.203125 109.890625 109.625 110.320312 110.328125 C 110.046875 105.726562 112.644531 101.4375 116.847656 99.546875 C 121.054688 97.65625 125.988281 98.5625 129.25 101.820312 C 132.507812 105.082031 133.414062 110.015625 131.523438 114.222656 C 129.632812 118.425781 125.34375 121.023438 120.738281 120.75 L 120.738281 126.898438 C 119.863281 129.941406 118.144531 134.691406 116.546875 138.496094 L 128.320312 138.496094 C 128.140625 137.703125 127.964844 137.28125 127.996094 137.269531 Z M 77.144531 74.640625 "/>
<path style=" stroke:none;fill-rule:nonzero;fill:rgb(92.156863%,92.156863%,92.156863%);fill-opacity:1;" d="M 119.703125 152.039062 L 126.53125 151.949219 L 126.265625 175.136719 L 119.929688 175.386719 Z M 119.703125 152.039062 "/>
<path style=" stroke:none;fill-rule:nonzero;fill:rgb(14.901961%,19.607843%,21.960784%);fill-opacity:1;" d="M 119.929688 175.386719 C 119.675781 158.863281 129.46875 143.84375 144.683594 137.402344 C 159.898438 130.964844 177.5 134.394531 189.183594 146.078125 C 200.867188 157.761719 204.296875 175.359375 197.855469 190.578125 C 191.417969 205.792969 176.394531 215.582031 159.875 215.328125 L 159.875 215.828125 C 160.5 217.050781 161.984375 217.730469 163.507812 217.496094 C 165.035156 217.261719 166.230469 216.171875 166.441406 214.824219 C 166.652344 213.476562 165.828125 212.195312 164.417969 211.6875 C 163.011719 211.179688 161.359375 211.570312 160.375 212.640625 Z M 126.53125 159.761719 C 139.277344 140.265625 163.601562 131.867188 185.660156 139.355469 C 207.71875 146.839844 221.910156 168.308594 220.15625 191.535156 C 218.402344 214.761719 201.144531 233.855469 178.214844 237.945312 C 155.285156 242.03125 132.492188 230.078125 122.820312 208.890625 L 172.628906 258.699219 L 172.628906 267.015625 Z M 68.574219 50.351562 C 128.40625 21.617188 200.199219 46.824219 228.933594 106.65625 C 257.667969 166.484375 232.460938 238.28125 172.628906 267.015625 C 173.59375 266.101562 173.265625 264.488281 172.664062 263.300781 C 172.066406 262.109375 171.234375 260.90625 171.410156 259.589844 C 171.546875 258.589844 172.246094 257.753906 172.714844 256.851562 C 172.351562 254.402344 173.601562 252 175.8125 250.886719 C 178.019531 249.777344 180.695312 250.207031 182.445312 251.957031 C 184.191406 253.707031 184.625 256.378906 183.511719 258.589844 C 182.398438 260.796875 179.996094 262.046875 177.550781 261.683594 C 175.746094 261.71875 173.839844 262.851562 172.234375 262.019531 C 171.070312 261.414062 170.585938 260.019531 169.570312 259.160156 C 168.003906 257.863281 165.640625 258.296875 163.785156 259.160156 C 161.929688 260.023438 160.15625 261.21875 158.121094 261.320312 C 156.425781 261.398438 154.796875 260.691406 153.121094 260.460938 C 153.457031 222.535156 184.476562 192.0625 222.402344 192.402344 C 260.328125 192.742188 290.796875 223.757812 290.460938 261.683594 "/>
<path style=" stroke:none;fill-rule:nonzero;fill:rgb(100%,74.509804%,61.568627%);fill-opacity:1;" d="M 70.839844 88.558594 C 38.101562 90.332031 10.125 65.226562 8.351562 32.488281 C 6.582031 -0.25 31.6875 -28.230469 64.425781 -30 C 63.425781 -33.03125 62.570312 -35.578125 62.570312 -35.578125 C 62.570312 -35.578125 54.519531 -34.351562 52 -41.996094 C 49.480469 -49.640625 45.5 -66.648438 45.5 -66.648438 L 45.253906 -67.679688 C 52.933594 -74.304688 63.855469 -75.410156 73.378906 -71.933594 L 73.878906 -70.351562 L 83.878906 -35.695312 C 82.207031 -39.558594 83.097656 -44.050781 86.121094 -46.984375 C 89.144531 -49.914062 93.664062 -50.667969 97.472656 -48.875 C 101.28125 -47.085938 103.585938 -43.121094 103.253906 -38.925781 C 102.925781 -34.730469 100.03125 -31.175781 95.988281 -30 Z M 70.839844 88.558594 "/>
<path style=" stroke:none;fill-rule:nonzero;fill:rgb(14.901961%,19.607843%,21.960784%);fill-opacity:1;" d="M 45.878906 56.769531 C 46.179688 57.355469 45.945312 58.074219 45.359375 58.371094 C 44.769531 58.671875 44.054688 58.4375 43.753906 57.851562 L 44.933594 59.03125 L 44.933594 59.828125 Z M 45.878906 56.769531 "/>
<path style=" stroke:none;fill-rule:nonzero;fill:rgb(14.901961%,19.607843%,21.960784%);fill-opacity:1;" d="M 42.683594 55.808594 C 42.851562 55.90625 43.421875 55.085938 44.476562 54.746094 C 45.53125 54.40625 46.476562 54.710938 46.539062 54.539062 C 46.578125 54.460938 46.386719 54.261719 45.96875 54.109375 C 22.742188 53.832031 4.140625 34.78125 4.414062 11.554688 C 4.691406 -11.671875 23.742188 -30.277344 46.96875 -30 C 46.726562 -29.609375 46.691406 -29.339844 46.765625 -29.300781 Z M 55.585938 52.5 C 55.585938 51.855469 56.113281 51.335938 56.757812 51.335938 C 57.402344 51.335938 57.925781 51.859375 57.925781 52.503906 C 57.925781 53.148438 57.40625 53.671875 56.761719 53.675781 Z M 55.585938 52.5 "/>
<path style=" stroke:none;fill-rule:nonzero;fill:rgb(14.901961%,19.607843%,21.960784%);fill-opacity:1;" d="M 54.183594 53.234375 C 54.34375 53.328125 54.914062 52.515625 55.96875 52.175781 C 57.023438 51.835938 57.96875 52.140625 58.039062 51.964844 C 58.078125 51.890625 57.886719 51.683594 57.46875 51.539062 C 34.953125 51.265625 16.925781 32.785156 17.199219 10.269531 C 17.476562 -12.246094 35.953125 -30.277344 58.46875 -30 C 58.226562 -29.621094 58.183594 -29.34375 58.265625 -29.304688 Z M 52.699219 63.296875 C 52.699219 63.214844 51.984375 63.296875 50.878906 63.484375 C 50.59375 63.546875 50.351562 63.554688 50.273438 63.398438 C 24.484375 63.636719 3.382812 42.921875 3.144531 17.128906 C 2.90625 -8.660156 23.625 -29.761719 49.414062 -30 C 49.464844 -30.78125 49.515625 -31.578125 49.570312 -32.414062 C 49.753906 -35.839844 49.773438 -38.621094 49.613281 -38.628906 C 49.453125 -38.640625 49.164062 -35.871094 48.976562 -32.445312 C 48.933594 -31.609375 48.898438 -30.816406 48.863281 -30.03125 C 48.433594 -30.828125 48.652344 -31.820312 49.378906 -32.363281 C 50.105469 -32.90625 51.117188 -32.832031 51.761719 -32.191406 C 52.402344 -31.550781 52.472656 -30.535156 51.933594 -29.808594 C 51.390625 -29.082031 50.398438 -28.863281 49.601562 -29.296875 L 49.601562 -28.796875 C 50.675781 -29.089844 51.335938 -29.316406 51.320312 -29.394531 Z M 52.699219 63.296875 "/>
<path style=" stroke:none;fill-rule:nonzero;fill:rgb(100%,100%,100%);fill-opacity:1;" d="M 56.5 63.378906 C 57.394531 62.378906 54 65.945312 51.796875 66.519531 C 25.140625 54.167969 13.546875 22.550781 25.898438 -4.101562 C 38.246094 -30.753906 69.867188 -42.351562 96.519531 -30 C 98.550781 -31.566406 97.410156 -33.214844 97.410156 -33.214844 Z M 56.5 63.378906 "/>
<path style=" stroke:none;fill-rule:nonzero;fill:rgb(92.156863%,60%,43.137255%);fill-opacity:1;" d="M 56.171875 76.460938 C 26.773438 91.972656 -9.632812 80.714844 -25.144531 51.316406 C -40.65625 21.917969 -29.398438 -14.488281 0 -30 C 0 -30 -0.621094 -23.730469 -8.5 -22 Z M 56.171875 76.460938 "/>
<path style=" stroke:none;fill-rule:nonzero;fill:rgb(100%,74.509804%,61.568627%);fill-opacity:1;" d="M 68.636719 47.035156 C 68.789062 46.925781 74.21875 44.796875 75.34375 51.558594 C 76.46875 58.324219 69.265625 57.214844 69.21875 57.023438 C 69.175781 56.835938 68.636719 47.035156 68.636719 47.035156 Z M 68.636719 47.035156 "/>
<path style=" stroke:none;fill-rule:nonzero;fill:rgb(92.156863%,60%,43.137255%);fill-opacity:1;" d="M 70.898438 54.308594 C 70.898438 54.28125 71.03125 54.371094 71.246094 54.429688 C 47.929688 50.789062 31.980469 28.9375 35.621094 5.621094 C 39.261719 -17.691406 61.117188 -33.640625 84.429688 -30 C 85.101562 -30.378906 85.511719 -31.613281 85.34375 -32.835938 C 84.9375 -32.234375 84.371094 -31.753906 83.710938 -31.449219 L 84.316406 -30.84375 C 84.253906 -30.644531 84.316406 -30.515625 84.316406 -30.5 C 84.316406 -30.484375 84.148438 -30.585938 84.15625 -30.875 C 84.222656 -31.273438 84.574219 -31.554688 84.976562 -31.53125 C 85.378906 -31.511719 85.699219 -31.191406 85.722656 -30.789062 C 85.746094 -30.386719 85.460938 -30.03125 85.066406 -29.964844 L 85.066406 -23.558594 C 85.390625 -25.941406 86.0625 -27.867188 86.566406 -27.867188 C 87.070312 -27.867188 87.210938 -25.941406 86.886719 -23.558594 C 87.070312 -22.195312 86.585938 -20.800781 85.65625 -20.359375 C 84.769531 -20.359375 84.054688 -21.078125 84.054688 -21.960938 C 84.054688 -22.84375 84.769531 -23.558594 85.65625 -23.558594 C 85.433594 -23.691406 85.375 -23.835938 85.394531 -23.851562 Z M 70.898438 54.308594 "/>
<path style=" stroke:none;fill-rule:nonzero;fill:rgb(14.901961%,19.607843%,21.960784%);fill-opacity:1;" d="M 38.265625 49.203125 C 38.265625 49.203125 43.570312 50.160156 48.804688 45.421875 C 52.234375 42.308594 56.613281 40.03125 57.871094 40.546875 C 59.125 41.058594 60.484375 45.113281 64.78125 45.203125 C 64.78125 45.203125 66.703125 53.128906 69.753906 51.976562 C 72.804688 50.820312 67.445312 39.210938 67.445312 39.210938 L 58.839844 36.054688 L 50.046875 36.820312 L 41.113281 40.425781 L 36.765625 45.066406 Z M 66.164062 32.5 C 67.808594 34.84375 68.121094 37.871094 66.988281 40.5 L 70.015625 43.523438 Z M 62.078125 30.304688 C 64.09375 28.292969 67.355469 28.292969 69.371094 30.304688 C 71.382812 32.316406 71.382812 35.582031 69.371094 37.59375 L 69.371094 38.09375 C 69.101562 42.960938 68.996094 46.847656 69.132812 46.773438 C 69.273438 46.703125 69.601562 42.699219 69.871094 37.835938 C 66.519531 46.6875 63.246094 53.863281 62.554688 53.863281 C 61.863281 53.863281 64.019531 46.6875 67.371094 37.835938 C 67.160156 36.476562 66.691406 35.425781 66.769531 35.394531 Z M 62.078125 30.304688 "/>
<path style=" stroke:none;fill-rule:nonzero;fill:rgb(87.843137%,87.843137%,87.843137%);fill-opacity:1;" d="M 82.628906 151.691406 L 117.253906 145.25 L 122.429688 168.648438 L 86.46875 174.71875 Z M 82.628906 151.691406 "/>
<path style=" stroke:none;fill-rule:nonzero;fill:rgb(14.901961%,19.607843%,21.960784%);fill-opacity:1;" d="M 117.253906 145.25 C 117.253906 145.25 117.253906 145.285156 117.195312 145.34375 L 117 145.621094 L 116.230469 146.648438 L 113.351562 150.414062 C 110.878906 153.605469 107.488281 157.988281 103.714844 162.859375 L 103.648438 162.945312 L 103.554688 162.894531 L 102.878906 162.539062 L 88.535156 154.914062 L 84.203125 152.574219 L 83.03125 151.929688 L 82.730469 151.753906 C 32.539062 151.773438 -8.164062 111.101562 -8.183594 60.914062 C -8.203125 10.722656 32.46875 -29.980469 82.660156 -30 L 82.769531 -29.953125 L 83.085938 -29.804688 L 84.28125 -29.183594 C 85.335938 -28.640625 86.820312 -27.863281 88.65625 -26.921875 L 103 162.308594 L 103.671875 162.664062 L 103.503906 162.699219 L 113.199219 150.304688 L 116.144531 146.585938 C 116.488281 146.164062 116.761719 145.828125 116.953125 145.585938 C 117.046875 145.484375 117.113281 145.398438 117.171875 145.328125 Z M 117.253906 145.25 "/>
<path style=" stroke:none;fill-rule:nonzero;fill:rgb(14.901961%,19.607843%,21.960784%);fill-opacity:1;" d="M 86.46875 174.71875 C 86.410156 174.679688 88.636719 171.148438 91.445312 166.835938 C 94.253906 162.519531 96.574219 159.050781 96.636719 159.089844 C 96.695312 159.128906 94.46875 162.660156 91.636719 166.976562 C 88.800781 171.289062 86.53125 174.761719 86.46875 174.71875 Z M 122.429688 168.648438 C 122.386719 168.703125 119.144531 166.226562 115.195312 163.109375 C 111.246094 159.996094 108.078125 157.425781 108.125 157.371094 C 108.171875 157.316406 111.40625 159.789062 115.359375 162.90625 C 119.316406 166.019531 122.5 168.589844 122.429688 168.648438 Z M 122.429688 168.648438 "/>
<path style=" stroke:none;fill-rule:nonzero;fill:rgb(100%,74.509804%,61.568627%);fill-opacity:1;" d="M 83.539062 156.910156 C 83.539062 156.910156 83.785156 161.445312 85.96875 161.410156 C 88.15625 161.375 95.863281 157.164062 96.761719 158.625 C 97.65625 160.085938 95.289062 162.125 95.289062 162.125 C 95.289062 162.125 98.003906 162.085938 96.996094 163.710938 C 95.984375 165.335938 92.960938 172.945312 90.164062 173.660156 C 86.164062 174.683594 76.898438 175.085938 76.898438 175.085938 L 79.753906 159.148438 Z M 83.539062 156.910156 "/>
<path style=" stroke:none;fill-rule:nonzero;fill:rgb(92.156863%,60%,43.137255%);fill-opacity:1;" d="M 96.128906 161.140625 C 43.347656 161.050781 0.632812 118.1875 0.722656 65.40625 C 0.8125 12.625 43.671875 -30.089844 96.453125 -30 C 96.253906 -29.804688 95.953125 -29.53125 95.574219 -29.210938 C 82.375 -27.71875 70.34375 -36.902344 68.308594 -50.03125 C 66.273438 -63.160156 74.957031 -75.558594 87.992188 -78.132812 C 101.023438 -80.707031 113.769531 -72.542969 116.878906 -59.625 C 119.988281 -46.707031 112.351562 -33.636719 99.574219 -30 C 99.109375 -29.816406 98.730469 -29.679688 98.464844 -29.59375 C 102.128906 -29.625 105.125 -26.675781 105.152344 -23.011719 C 105.179688 -19.347656 102.234375 -16.355469 98.570312 -16.324219 L 131.746094 -16.324219 C 130.777344 -14.882812 131.523438 -12.726562 133.597656 -10.976562 C 135.667969 -9.226562 138.601562 -8.277344 140.871094 -8.617188 C 143.140625 -8.960938 144.238281 -10.515625 143.59375 -12.480469 C 142.945312 -14.445312 140.707031 -16.375 138.03125 -17.269531 Z M 96 165.628906 C 99.523438 165.316406 102.636719 167.917969 102.953125 171.441406 C 103.265625 174.96875 100.664062 178.082031 97.140625 178.394531 L 102.261719 183.515625 L 114.195312 183.515625 C 132.023438 193.878906 147.6875 201.445312 149.179688 200.414062 C 150.671875 199.378906 137.429688 190.140625 119.601562 179.773438 Z M 96 165.628906 "/>
</g>
</svg>
